<?xml version="1.0" encoding="UTF-8" standalone="no"?><svg xmlns="http://www.w3.org/2000/svg" xmlns:xlink="http://www.w3.org/1999/xlink" contentScriptType="application/ecmascript" contentStyleType="text/css" height="2387px" preserveAspectRatio="none" style="width:988px;height:2387px;" version="1.1" viewBox="0 0 988 2387" width="988px" zoomAndPan="magnify"><defs><filter height="300%" id="f1vo4hz4ivt8bl" width="300%" x="-1" y="-1"><feGaussianBlur result="blurOut" stdDeviation="2.0"/><feColorMatrix in="blurOut" result="blurOut2" type="matrix" values="0 0 0 0 0 0 0 0 0 0 0 0 0 0 0 0 0 0 .4 0"/><feOffset dx="4.0" dy="4.0" in="blurOut2" result="blurOut3"/><feBlend in="SourceGraphic" in2="blurOut3" mode="normal"/></filter></defs><g><rect fill="#ADD8E6" height="2372.4141" style="stroke: #A80036; stroke-width: 1.0;" width="393" x="128" y="4"/><text fill="#000000" font-family="sans-serif" font-size="13" font-weight="bold" lengthAdjust="spacingAndGlyphs" textLength="31" x="309" y="17.4951">local</text><rect fill="#98FB98" height="2372.4141" style="stroke: #A80036; stroke-width: 1.0;" width="362" x="583" y="4"/><text fill="#000000" font-family="sans-serif" font-size="13" font-weight="bold" lengthAdjust="spacingAndGlyphs" textLength="45" x="741.5" y="17.4951">remote</text><rect fill="#FFFFFF" filter="url(#f1vo4hz4ivt8bl)" height="255.2969" style="stroke: #000000; stroke-width: 2.0;" width="776" x="13" y="148.9609"/><rect fill="#FFFFFF" height="206.5938" style="stroke: none; stroke-width: 1.0;" width="776" x="13" y="197.6641"/><rect fill="#FFFFFF" filter="url(#f1vo4hz4ivt8bl)" height="48.7031" style="stroke: #000000; stroke-width: 2.0;" width="405" x="122" y="567.6641"/><rect fill="#FFFFFF" filter="url(#f1vo4hz4ivt8bl)" height="61.7031" style="stroke: #000000; stroke-width: 2.0;" width="189" x="355" y="718.0703"/><rect fill="#FFFFFF" filter="url(#f1vo4hz4ivt8bl)" height="180.0781" style="stroke: #000000; stroke-width: 2.0;" width="187" x="355" y="881.4766"/><rect fill="#FFFFFF" height="59.1875" style="stroke: none; stroke-width: 1.0;" width="187" x="355" y="943.1797"/><rect fill="#FFFFFF" height="59.1875" style="stroke: none; stroke-width: 1.0;" width="187" x="355" y="1002.3672"/><rect fill="#FFFFFF" filter="url(#f1vo4hz4ivt8bl)" height="48.7031" style="stroke: #000000; stroke-width: 2.0;" width="405" x="122" y="1370.0156"/><rect fill="#FFFFFF" filter="url(#f1vo4hz4ivt8bl)" height="61.7031" style="stroke: #000000; stroke-width: 2.0;" width="220" x="122" y="1506.4219"/><rect fill="#FFFFFF" filter="url(#f1vo4hz4ivt8bl)" height="48.7031" style="stroke: #000000; stroke-width: 2.0;" width="667" x="122" y="1700.1797"/><rect fill="#FFFFFF" filter="url(#f1vo4hz4ivt8bl)" height="61.7031" style="stroke: #000000; stroke-width: 2.0;" width="212" x="122" y="1880.9375"/><rect fill="#FFFFFF" filter="url(#f1vo4hz4ivt8bl)" height="48.7031" style="stroke: #000000; stroke-width: 2.0;" width="405" x="122" y="2000.9922"/><line style="stroke: #A80036; stroke-width: 1.0; stroke-dasharray: 5.0,5.0;" x1="57" x2="57" y1="87.6094" y2="2288.8047"/><line style="stroke: #A80036; stroke-width: 1.0; stroke-dasharray: 5.0,5.0;" x1="228" x2="228" y1="87.6094" y2="2288.8047"/><line style="stroke: #A80036; stroke-width: 1.0; stroke-dasharray: 5.0,5.0;" x1="441" x2="441" y1="87.6094" y2="2288.8047"/><line style="stroke: #A80036; stroke-width: 1.0; stroke-dasharray: 5.0,5.0;" x1="683" x2="683" y1="87.6094" y2="2288.8047"/><line style="stroke: #A80036; stroke-width: 1.0; stroke-dasharray: 5.0,5.0;" x1="865" x2="865" y1="87.6094" y2="2288.8047"/><text fill="#000000" font-family="sans-serif" font-size="14" lengthAdjust="spacingAndGlyphs" textLength="63" x="23" y="84.5332">developer</text><ellipse cx="57.5" cy="13" fill="#FEFECE" filter="url(#f1vo4hz4ivt8bl)" rx="8" ry="8" style="stroke: #A80036; stroke-width: 2.0;"/><path d="M57.5,21 L57.5,48 M44.5,29 L70.5,29 M57.5,48 L44.5,63 M57.5,48 L70.5,63 " fill="none" filter="url(#f1vo4hz4ivt8bl)" style="stroke: #A80036; stroke-width: 2.0;"/><text fill="#000000" font-family="sans-serif" font-size="14" lengthAdjust="spacingAndGlyphs" textLength="63" x="23" y="2302.3379">developer</text><ellipse cx="57.5" cy="2315.4141" fill="#FEFECE" filter="url(#f1vo4hz4ivt8bl)" rx="8" ry="8" style="stroke: #A80036; stroke-width: 2.0;"/><path d="M57.5,2323.4141 L57.5,2350.4141 M44.5,2331.4141 L70.5,2331.4141 M57.5,2350.4141 L44.5,2365.4141 M57.5,2350.4141 L70.5,2365.4141 " fill="none" filter="url(#f1vo4hz4ivt8bl)" style="stroke: #A80036; stroke-width: 2.0;"/><rect fill="#FEFECE" filter="url(#f1vo4hz4ivt8bl)" height="31.6094" style="stroke: #A80036; stroke-width: 1.5;" width="108" x="172" y="51"/><text fill="#000000" font-family="sans-serif" font-size="14" lengthAdjust="spacingAndGlyphs" textLength="94" x="179" y="72.5332">master or main</text><rect fill="#FEFECE" filter="url(#f1vo4hz4ivt8bl)" height="31.6094" style="stroke: #A80036; stroke-width: 1.5;" width="108" x="172" y="2287.8047"/><text fill="#000000" font-family="sans-serif" font-size="14" lengthAdjust="spacingAndGlyphs" textLength="94" x="179" y="2309.3379">master or main</text><rect fill="#FEFECE" filter="url(#f1vo4hz4ivt8bl)" height="31.6094" style="stroke: #A80036; stroke-width: 1.5;" width="68" x="405" y="51"/><text fill="#000000" font-family="sans-serif" font-size="14" lengthAdjust="spacingAndGlyphs" textLength="54" x="412" y="72.5332">featureA</text><rect fill="#FEFECE" filter="url(#f1vo4hz4ivt8bl)" height="31.6094" style="stroke: #A80036; stroke-width: 1.5;" width="68" x="405" y="2287.8047"/><text fill="#000000" font-family="sans-serif" font-size="14" lengthAdjust="spacingAndGlyphs" textLength="54" x="412" y="2309.3379">featureA</text><rect fill="#FEFECE" filter="url(#f1vo4hz4ivt8bl)" height="31.6094" style="stroke: #A80036; stroke-width: 1.5;" width="108" x="627" y="51"/><text fill="#000000" font-family="sans-serif" font-size="14" lengthAdjust="spacingAndGlyphs" textLength="94" x="634" y="72.5332">master or main</text><rect fill="#FEFECE" filter="url(#f1vo4hz4ivt8bl)" height="31.6094" style="stroke: #A80036; stroke-width: 1.5;" width="108" x="627" y="2287.8047"/><text fill="#000000" font-family="sans-serif" font-size="14" lengthAdjust="spacingAndGlyphs" textLength="94" x="634" y="2309.3379">master or main</text><rect fill="#FEFECE" filter="url(#f1vo4hz4ivt8bl)" height="31.6094" style="stroke: #A80036; stroke-width: 1.5;" width="68" x="829" y="51"/><text fill="#000000" font-family="sans-serif" font-size="14" lengthAdjust="spacingAndGlyphs" textLength="54" x="836" y="72.5332">featureA</text><rect fill="#FEFECE" filter="url(#f1vo4hz4ivt8bl)" height="31.6094" style="stroke: #A80036; stroke-width: 1.5;" width="68" x="829" y="2287.8047"/><text fill="#000000" font-family="sans-serif" font-size="14" lengthAdjust="spacingAndGlyphs" textLength="54" x="836" y="2309.3379">featureA</text><rect fill="#EEEEEE" filter="url(#f1vo4hz4ivt8bl)" height="3" style="stroke: #EEEEEE; stroke-width: 1.0;" width="973" x="3" y="118.7852"/><line style="stroke: #000000; stroke-width: 1.0;" x1="3" x2="976" y1="118.7852" y2="118.7852"/><line style="stroke: #000000; stroke-width: 1.0;" x1="3" x2="976" y1="121.7852" y2="121.7852"/><rect fill="#EEEEEE" filter="url(#f1vo4hz4ivt8bl)" height="24.3516" style="stroke: #000000; stroke-width: 2.0;" width="116" x="431.5" y="107.6094"/><text fill="#000000" font-family="sans-serif" font-size="13" font-weight="bold" lengthAdjust="spacingAndGlyphs" textLength="98" x="437.5" y="125.1045">リポジトリ作成</text><path d="M13,148.9609 L74,148.9609 L74,156.9609 L64,166.9609 L13,166.9609 L13,148.9609 " fill="#EEEEEE" style="stroke: #000000; stroke-width: 1.0;"/><rect fill="none" height="255.2969" style="stroke: #000000; stroke-width: 2.0;" width="776" x="13" y="148.9609"/><text fill="#000000" font-family="sans-serif" font-size="13" font-weight="bold" lengthAdjust="spacingAndGlyphs" textLength="16" x="28" y="163.4561">alt</text><text fill="#000000" font-family="sans-serif" font-size="11" font-weight="bold" lengthAdjust="spacingAndGlyphs" textLength="152" x="89" y="162.3799">[リポジトリが存在している]</text><polygon fill="#A80036" points="68.5,185.6641,58.5,189.6641,68.5,193.6641,64.5,189.6641" style="stroke: #A80036; stroke-width: 1.0;"/><line style="stroke: #A80036; stroke-width: 1.0;" x1="62.5" x2="682" y1="189.6641" y2="189.6641"/><text fill="#000000" font-family="sans-serif" font-size="13" lengthAdjust="spacingAndGlyphs" textLength="86" x="74.5" y="184.8076">git clone [URL]</text><line style="stroke: #000000; stroke-width: 1.0; stroke-dasharray: 2.0,2.0;" x1="13" x2="789" y1="198.6641" y2="198.6641"/><text fill="#000000" font-family="sans-serif" font-size="11" font-weight="bold" lengthAdjust="spacingAndGlyphs" textLength="92" x="18" y="210.083">[存在していない]</text><polygon fill="#A80036" points="216,231.8516,226,235.8516,216,239.8516,220,235.8516" style="stroke: #A80036; stroke-width: 1.0;"/><line style="stroke: #A80036; stroke-width: 1.0;" x1="57.5" x2="222" y1="235.8516" y2="235.8516"/><text fill="#000000" font-family="sans-serif" font-size="13" lengthAdjust="spacingAndGlyphs" textLength="35" x="64.5" y="230.9951">git init</text><line style="stroke: #A80036; stroke-width: 1.0;" x1="228" x2="270" y1="266.2031" y2="266.2031"/><line style="stroke: #A80036; stroke-width: 1.0;" x1="270" x2="270" y1="266.2031" y2="279.2031"/><line style="stroke: #A80036; stroke-width: 1.0;" x1="229" x2="270" y1="279.2031" y2="279.2031"/><polygon fill="#A80036" points="239,275.2031,229,279.2031,239,283.2031,235,279.2031" style="stroke: #A80036; stroke-width: 1.0;"/><text fill="#000000" font-family="sans-serif" font-size="13" lengthAdjust="spacingAndGlyphs" textLength="47" x="235" y="261.3467">git add .</text><line style="stroke: #A80036; stroke-width: 1.0;" x1="228" x2="270" y1="309.5547" y2="309.5547"/><line style="stroke: #A80036; stroke-width: 1.0;" x1="270" x2="270" y1="309.5547" y2="322.5547"/><line style="stroke: #A80036; stroke-width: 1.0;" x1="229" x2="270" y1="322.5547" y2="322.5547"/><polygon fill="#A80036" points="239,318.5547,229,322.5547,239,326.5547,235,322.5547" style="stroke: #A80036; stroke-width: 1.0;"/><text fill="#000000" font-family="sans-serif" font-size="13" lengthAdjust="spacingAndGlyphs" textLength="167" x="235" y="304.6982">git commit -m "First commit"</text><line style="stroke: #A80036; stroke-width: 1.0;" x1="228" x2="270" y1="352.9063" y2="352.9063"/><line style="stroke: #A80036; stroke-width: 1.0;" x1="270" x2="270" y1="352.9063" y2="365.9063"/><line style="stroke: #A80036; stroke-width: 1.0;" x1="229" x2="270" y1="365.9063" y2="365.9063"/><polygon fill="#A80036" points="239,361.9063,229,365.9063,239,369.9063,235,365.9063" style="stroke: #A80036; stroke-width: 1.0;"/><text fill="#000000" font-family="sans-serif" font-size="13" lengthAdjust="spacingAndGlyphs" textLength="199" x="235" y="348.0498">git remote add origin remote [URL]</text><polygon fill="#A80036" points="671,392.2578,681,396.2578,671,400.2578,675,396.2578" style="stroke: #A80036; stroke-width: 1.0;"/><line style="stroke: #A80036; stroke-width: 1.0;" x1="228" x2="677" y1="396.2578" y2="396.2578"/><text fill="#000000" font-family="sans-serif" font-size="13" lengthAdjust="spacingAndGlyphs" textLength="133" x="235" y="391.4014">git push origin [master]</text><rect fill="#EEEEEE" filter="url(#f1vo4hz4ivt8bl)" height="3" style="stroke: #EEEEEE; stroke-width: 1.0;" width="973" x="3" y="432.4336"/><line style="stroke: #000000; stroke-width: 1.0;" x1="3" x2="976" y1="432.4336" y2="432.4336"/><line style="stroke: #000000; stroke-width: 1.0;" x1="3" x2="976" y1="435.4336" y2="435.4336"/><rect fill="#EEEEEE" filter="url(#f1vo4hz4ivt8bl)" height="24.3516" style="stroke: #000000; stroke-width: 2.0;" width="257" x="361" y="421.2578"/><text fill="#000000" font-family="sans-serif" font-size="13" font-weight="bold" lengthAdjust="spacingAndGlyphs" textLength="239" x="367" y="438.7529">[featureA]ブランチを[master]から作成</text><polygon fill="#A80036" points="429,473.9609,439,477.9609,429,481.9609,433,477.9609" style="stroke: #A80036; stroke-width: 1.0;"/><line style="stroke: #A80036; stroke-width: 1.0;" x1="228" x2="435" y1="477.9609" y2="477.9609"/><text fill="#000000" font-family="sans-serif" font-size="13" lengthAdjust="spacingAndGlyphs" textLength="169" x="235" y="473.1045">git branch [featureA] [master]</text><rect fill="#EEEEEE" filter="url(#f1vo4hz4ivt8bl)" height="3" style="stroke: #EEEEEE; stroke-width: 1.0;" width="973" x="3" y="507.1367"/><line style="stroke: #000000; stroke-width: 1.0;" x1="3" x2="976" y1="507.1367" y2="507.1367"/><line style="stroke: #000000; stroke-width: 1.0;" x1="3" x2="976" y1="510.1367" y2="510.1367"/><rect fill="#EEEEEE" filter="url(#f1vo4hz4ivt8bl)" height="24.3516" style="stroke: #000000; stroke-width: 2.0;" width="178" x="400.5" y="495.9609"/><text fill="#000000" font-family="sans-serif" font-size="13" font-weight="bold" lengthAdjust="spacingAndGlyphs" textLength="160" x="406.5" y="513.4561">[featureA]ブランチへ移動</text><polygon fill="#A80036" points="429,548.6641,439,552.6641,429,556.6641,433,552.6641" style="stroke: #A80036; stroke-width: 1.0;"/><line style="stroke: #A80036; stroke-width: 1.0;" x1="228" x2="435" y1="552.6641" y2="552.6641"/><text fill="#000000" font-family="sans-serif" font-size="13" lengthAdjust="spacingAndGlyphs" textLength="131" x="235" y="547.8076">git checkout [featureA]</text><path d="M122,567.6641 L187,567.6641 L187,575.6641 L177,585.6641 L122,585.6641 L122,567.6641 " fill="#EEEEEE" style="stroke: #000000; stroke-width: 1.0;"/><rect fill="none" height="48.7031" style="stroke: #000000; stroke-width: 2.0;" width="405" x="122" y="567.6641"/><text fill="#000000" font-family="sans-serif" font-size="13" font-weight="bold" lengthAdjust="spacingAndGlyphs" textLength="20" x="137" y="582.1592">opt</text><text fill="#000000" font-family="sans-serif" font-size="11" font-weight="bold" lengthAdjust="spacingAndGlyphs" textLength="301" x="202" y="581.083">[gitのバージョンが[2.23.0]以上の場合switchが利用可能]</text><polygon fill="#A80036" points="429,604.3672,439,608.3672,429,612.3672,433,608.3672" style="stroke: #A80036; stroke-width: 1.0;"/><line style="stroke: #A80036; stroke-width: 1.0;" x1="228" x2="435" y1="608.3672" y2="608.3672"/><text fill="#000000" font-family="sans-serif" font-size="13" lengthAdjust="spacingAndGlyphs" textLength="130" x="235" y="603.5107">git switch -c [featureA]</text><rect fill="#EEEEEE" filter="url(#f1vo4hz4ivt8bl)" height="3" style="stroke: #EEEEEE; stroke-width: 1.0;" width="973" x="3" y="644.543"/><line style="stroke: #000000; stroke-width: 1.0;" x1="3" x2="976" y1="644.543" y2="644.543"/><line style="stroke: #000000; stroke-width: 1.0;" x1="3" x2="976" y1="647.543" y2="647.543"/><rect fill="#EEEEEE" filter="url(#f1vo4hz4ivt8bl)" height="24.3516" style="stroke: #000000; stroke-width: 2.0;" width="102" x="438.5" y="633.3672"/><text fill="#000000" font-family="sans-serif" font-size="13" font-weight="bold" lengthAdjust="spacingAndGlyphs" textLength="84" x="444.5" y="650.8623">ステージング</text><line style="stroke: #A80036; stroke-width: 1.0;" x1="441" x2="483" y1="690.0703" y2="690.0703"/><line style="stroke: #A80036; stroke-width: 1.0;" x1="483" x2="483" y1="690.0703" y2="703.0703"/><line style="stroke: #A80036; stroke-width: 1.0;" x1="442" x2="483" y1="703.0703" y2="703.0703"/><polygon fill="#A80036" points="452,699.0703,442,703.0703,452,707.0703,448,703.0703" style="stroke: #A80036; stroke-width: 1.0;"/><text fill="#000000" font-family="sans-serif" font-size="13" lengthAdjust="spacingAndGlyphs" textLength="67" x="448" y="685.2139">git add [file]</text><path d="M355,718.0703 L420,718.0703 L420,726.0703 L410,736.0703 L355,736.0703 L355,718.0703 " fill="#EEEEEE" style="stroke: #000000; stroke-width: 1.0;"/><rect fill="none" height="61.7031" style="stroke: #000000; stroke-width: 2.0;" width="189" x="355" y="718.0703"/><text fill="#000000" font-family="sans-serif" font-size="13" font-weight="bold" lengthAdjust="spacingAndGlyphs" textLength="20" x="370" y="732.5654">opt</text><text fill="#000000" font-family="sans-serif" font-size="11" font-weight="bold" lengthAdjust="spacingAndGlyphs" textLength="104" x="435" y="731.4893">[ステージから外す]</text><line style="stroke: #A80036; stroke-width: 1.0;" x1="441" x2="483" y1="758.7734" y2="758.7734"/><line style="stroke: #A80036; stroke-width: 1.0;" x1="483" x2="483" y1="758.7734" y2="771.7734"/><line style="stroke: #A80036; stroke-width: 1.0;" x1="442" x2="483" y1="771.7734" y2="771.7734"/><polygon fill="#A80036" points="452,767.7734,442,771.7734,452,775.7734,448,771.7734" style="stroke: #A80036; stroke-width: 1.0;"/><text fill="#000000" font-family="sans-serif" font-size="13" lengthAdjust="spacingAndGlyphs" textLength="75" x="448" y="753.917">git reset [file]</text><rect fill="#EEEEEE" filter="url(#f1vo4hz4ivt8bl)" height="3" style="stroke: #EEEEEE; stroke-width: 1.0;" width="973" x="3" y="807.9492"/><line style="stroke: #000000; stroke-width: 1.0;" x1="3" x2="976" y1="807.9492" y2="807.9492"/><line style="stroke: #000000; stroke-width: 1.0;" x1="3" x2="976" y1="810.9492" y2="810.9492"/><rect fill="#EEEEEE" filter="url(#f1vo4hz4ivt8bl)" height="24.3516" style="stroke: #000000; stroke-width: 2.0;" width="116" x="431.5" y="796.7734"/><text fill="#000000" font-family="sans-serif" font-size="13" font-weight="bold" lengthAdjust="spacingAndGlyphs" textLength="98" x="437.5" y="814.2686">編集を一時退避</text><line style="stroke: #A80036; stroke-width: 1.0;" x1="441" x2="483" y1="853.4766" y2="853.4766"/><line style="stroke: #A80036; stroke-width: 1.0;" x1="483" x2="483" y1="853.4766" y2="866.4766"/><line style="stroke: #A80036; stroke-width: 1.0;" x1="442" x2="483" y1="866.4766" y2="866.4766"/><polygon fill="#A80036" points="452,862.4766,442,866.4766,452,870.4766,448,866.4766" style="stroke: #A80036; stroke-width: 1.0;"/><text fill="#000000" font-family="sans-serif" font-size="13" lengthAdjust="spacingAndGlyphs" textLength="50" x="448" y="848.6201">git stash</text><path d="M355,881.4766 L420,881.4766 L420,889.4766 L410,899.4766 L355,899.4766 L355,881.4766 " fill="#EEEEEE" style="stroke: #000000; stroke-width: 1.0;"/><rect fill="none" height="180.0781" style="stroke: #000000; stroke-width: 2.0;" width="187" x="355" y="881.4766"/><text fill="#000000" font-family="sans-serif" font-size="13" font-weight="bold" lengthAdjust="spacingAndGlyphs" textLength="20" x="370" y="895.9717">opt</text><text fill="#000000" font-family="sans-serif" font-size="11" font-weight="bold" lengthAdjust="spacingAndGlyphs" textLength="56" x="435" y="894.8955">[元に戻す]</text><line style="stroke: #A80036; stroke-width: 1.0;" x1="441" x2="483" y1="922.1797" y2="922.1797"/><line style="stroke: #A80036; stroke-width: 1.0;" x1="483" x2="483" y1="922.1797" y2="935.1797"/><line style="stroke: #A80036; stroke-width: 1.0;" x1="442" x2="483" y1="935.1797" y2="935.1797"/><polygon fill="#A80036" points="452,931.1797,442,935.1797,452,939.1797,448,935.1797" style="stroke: #A80036; stroke-width: 1.0;"/><text fill="#000000" font-family="sans-serif" font-size="13" lengthAdjust="spacingAndGlyphs" textLength="75" x="448" y="917.3232">git stash pop</text><line style="stroke: #000000; stroke-width: 1.0; stroke-dasharray: 2.0,2.0;" x1="355" x2="542" y1="944.1797" y2="944.1797"/><text fill="#000000" font-family="sans-serif" font-size="11" font-weight="bold" lengthAdjust="spacingAndGlyphs" textLength="92" x="360" y="955.5986">[退避一覧を表示]</text><line style="stroke: #A80036; stroke-width: 1.0;" x1="441" x2="483" y1="981.3672" y2="981.3672"/><line style="stroke: #A80036; stroke-width: 1.0;" x1="483" x2="483" y1="981.3672" y2="994.3672"/><line style="stroke: #A80036; stroke-width: 1.0;" x1="442" x2="483" y1="994.3672" y2="994.3672"/><polygon fill="#A80036" points="452,990.3672,442,994.3672,452,998.3672,448,994.3672" style="stroke: #A80036; stroke-width: 1.0;"/><text fill="#000000" font-family="sans-serif" font-size="13" lengthAdjust="spacingAndGlyphs" textLength="71" x="448" y="976.5107">git stash list</text><line style="stroke: #000000; stroke-width: 1.0; stroke-dasharray: 2.0,2.0;" x1="355" x2="542" y1="1003.3672" y2="1003.3672"/><text fill="#000000" font-family="sans-serif" font-size="11" font-weight="bold" lengthAdjust="spacingAndGlyphs" textLength="68" x="360" y="1014.7861">[退避を削除]</text><line style="stroke: #A80036; stroke-width: 1.0;" x1="441" x2="483" y1="1040.5547" y2="1040.5547"/><line style="stroke: #A80036; stroke-width: 1.0;" x1="483" x2="483" y1="1040.5547" y2="1053.5547"/><line style="stroke: #A80036; stroke-width: 1.0;" x1="442" x2="483" y1="1053.5547" y2="1053.5547"/><polygon fill="#A80036" points="452,1049.5547,442,1053.5547,452,1057.5547,448,1053.5547" style="stroke: #A80036; stroke-width: 1.0;"/><text fill="#000000" font-family="sans-serif" font-size="13" lengthAdjust="spacingAndGlyphs" textLength="82" x="448" y="1035.6982">git stash clear</text><rect fill="#EEEEEE" filter="url(#f1vo4hz4ivt8bl)" height="3" style="stroke: #EEEEEE; stroke-width: 1.0;" width="973" x="3" y="1089.7305"/><line style="stroke: #000000; stroke-width: 1.0;" x1="3" x2="976" y1="1089.7305" y2="1089.7305"/><line style="stroke: #000000; stroke-width: 1.0;" x1="3" x2="976" y1="1092.7305" y2="1092.7305"/><rect fill="#EEEEEE" filter="url(#f1vo4hz4ivt8bl)" height="24.3516" style="stroke: #000000; stroke-width: 2.0;" width="116" x="431.5" y="1078.5547"/><text fill="#000000" font-family="sans-serif" font-size="13" font-weight="bold" lengthAdjust="spacingAndGlyphs" textLength="98" x="437.5" y="1096.0498">編集差分の確認</text><line style="stroke: #A80036; stroke-width: 1.0;" x1="441" x2="483" y1="1135.2578" y2="1135.2578"/><line style="stroke: #A80036; stroke-width: 1.0;" x1="483" x2="483" y1="1135.2578" y2="1148.2578"/><line style="stroke: #A80036; stroke-width: 1.0;" x1="442" x2="483" y1="1148.2578" y2="1148.2578"/><polygon fill="#A80036" points="452,1144.2578,442,1148.2578,452,1152.2578,448,1148.2578" style="stroke: #A80036; stroke-width: 1.0;"/><text fill="#000000" font-family="sans-serif" font-size="13" lengthAdjust="spacingAndGlyphs" textLength="34" x="448" y="1130.4014">git diff</text><rect fill="#EEEEEE" filter="url(#f1vo4hz4ivt8bl)" height="3" style="stroke: #EEEEEE; stroke-width: 1.0;" width="973" x="3" y="1177.4336"/><line style="stroke: #000000; stroke-width: 1.0;" x1="3" x2="976" y1="1177.4336" y2="1177.4336"/><line style="stroke: #000000; stroke-width: 1.0;" x1="3" x2="976" y1="1180.4336" y2="1180.4336"/><rect fill="#EEEEEE" filter="url(#f1vo4hz4ivt8bl)" height="24.3516" style="stroke: #000000; stroke-width: 2.0;" width="74" x="452.5" y="1166.2578"/><text fill="#000000" font-family="sans-serif" font-size="13" font-weight="bold" lengthAdjust="spacingAndGlyphs" textLength="56" x="458.5" y="1183.7529">コミット</text><line style="stroke: #A80036; stroke-width: 1.0;" x1="441" x2="483" y1="1222.9609" y2="1222.9609"/><line style="stroke: #A80036; stroke-width: 1.0;" x1="483" x2="483" y1="1222.9609" y2="1235.9609"/><line style="stroke: #A80036; stroke-width: 1.0;" x1="442" x2="483" y1="1235.9609" y2="1235.9609"/><polygon fill="#A80036" points="452,1231.9609,442,1235.9609,452,1239.9609,448,1235.9609" style="stroke: #A80036; stroke-width: 1.0;"/><text fill="#000000" font-family="sans-serif" font-size="13" lengthAdjust="spacingAndGlyphs" textLength="171" x="448" y="1218.1045">git commit -a -m "[comment]"</text><rect fill="#EEEEEE" filter="url(#f1vo4hz4ivt8bl)" height="3" style="stroke: #EEEEEE; stroke-width: 1.0;" width="973" x="3" y="1265.1367"/><line style="stroke: #000000; stroke-width: 1.0;" x1="3" x2="976" y1="1265.1367" y2="1265.1367"/><line style="stroke: #000000; stroke-width: 1.0;" x1="3" x2="976" y1="1268.1367" y2="1268.1367"/><rect fill="#EEEEEE" filter="url(#f1vo4hz4ivt8bl)" height="24.3516" style="stroke: #000000; stroke-width: 2.0;" width="237" x="371" y="1253.9609"/><text fill="#000000" font-family="sans-serif" font-size="13" font-weight="bold" lengthAdjust="spacingAndGlyphs" textLength="219" x="377" y="1271.4561">[featureA]ブランチをremoteへ送信</text><polygon fill="#A80036" points="853,1306.6641,863,1310.6641,853,1314.6641,857,1310.6641" style="stroke: #A80036; stroke-width: 1.0;"/><line style="stroke: #A80036; stroke-width: 1.0;" x1="441" x2="859" y1="1310.6641" y2="1310.6641"/><text fill="#000000" font-family="sans-serif" font-size="13" lengthAdjust="spacingAndGlyphs" textLength="141" x="448" y="1305.8076">git push origin [featureA]</text><rect fill="#EEEEEE" filter="url(#f1vo4hz4ivt8bl)" height="3" style="stroke: #EEEEEE; stroke-width: 1.0;" width="973" x="3" y="1339.8398"/><line style="stroke: #000000; stroke-width: 1.0;" x1="3" x2="976" y1="1339.8398" y2="1339.8398"/><line style="stroke: #000000; stroke-width: 1.0;" x1="3" x2="976" y1="1342.8398" y2="1342.8398"/><rect fill="#EEEEEE" filter="url(#f1vo4hz4ivt8bl)" height="24.3516" style="stroke: #000000; stroke-width: 2.0;" width="257" x="361" y="1328.6641"/><text fill="#000000" font-family="sans-serif" font-size="13" font-weight="bold" lengthAdjust="spacingAndGlyphs" textLength="239" x="367" y="1346.1592">[featureA]ブランチを[master]へマージ</text><path d="M122,1370.0156 L187,1370.0156 L187,1378.0156 L177,1388.0156 L122,1388.0156 L122,1370.0156 " fill="#EEEEEE" style="stroke: #000000; stroke-width: 1.0;"/><rect fill="none" height="48.7031" style="stroke: #000000; stroke-width: 2.0;" width="405" x="122" y="1370.0156"/><text fill="#000000" font-family="sans-serif" font-size="13" font-weight="bold" lengthAdjust="spacingAndGlyphs" textLength="20" x="137" y="1384.5107">opt</text><text fill="#000000" font-family="sans-serif" font-size="11" font-weight="bold" lengthAdjust="spacingAndGlyphs" textLength="188" x="202" y="1383.4346">[[master]ブランチでなければ移動]</text><polygon fill="#A80036" points="239,1406.7188,229,1410.7188,239,1414.7188,235,1410.7188" style="stroke: #A80036; stroke-width: 1.0;"/><line style="stroke: #A80036; stroke-width: 1.0;" x1="233" x2="440" y1="1410.7188" y2="1410.7188"/><text fill="#000000" font-family="sans-serif" font-size="13" lengthAdjust="spacingAndGlyphs" textLength="123" x="245" y="1405.8623">git checkout [master]</text><line style="stroke: #A80036; stroke-width: 1.0;" x1="228" x2="270" y1="1448.0703" y2="1448.0703"/><line style="stroke: #A80036; stroke-width: 1.0;" x1="270" x2="270" y1="1448.0703" y2="1461.0703"/><line style="stroke: #A80036; stroke-width: 1.0;" x1="229" x2="270" y1="1461.0703" y2="1461.0703"/><polygon fill="#A80036" points="239,1457.0703,229,1461.0703,239,1465.0703,235,1461.0703" style="stroke: #A80036; stroke-width: 1.0;"/><text fill="#000000" font-family="sans-serif" font-size="13" lengthAdjust="spacingAndGlyphs" textLength="114" x="235" y="1443.2139">git merge [featureA]</text><polygon fill="#A80036" points="671,1487.4219,681,1491.4219,671,1495.4219,675,1491.4219" style="stroke: #A80036; stroke-width: 1.0;"/><line style="stroke: #A80036; stroke-width: 1.0;" x1="228" x2="677" y1="1491.4219" y2="1491.4219"/><text fill="#000000" font-family="sans-serif" font-size="13" lengthAdjust="spacingAndGlyphs" textLength="133" x="235" y="1486.5654">git push origin [master]</text><path d="M122,1506.4219 L187,1506.4219 L187,1514.4219 L177,1524.4219 L122,1524.4219 L122,1506.4219 " fill="#EEEEEE" style="stroke: #000000; stroke-width: 1.0;"/><rect fill="none" height="61.7031" style="stroke: #000000; stroke-width: 2.0;" width="220" x="122" y="1506.4219"/><text fill="#000000" font-family="sans-serif" font-size="13" font-weight="bold" lengthAdjust="spacingAndGlyphs" textLength="20" x="137" y="1520.917">opt</text><text fill="#000000" font-family="sans-serif" font-size="11" font-weight="bold" lengthAdjust="spacingAndGlyphs" textLength="104" x="202" y="1519.8408">[マージを取り消す]</text><line style="stroke: #A80036; stroke-width: 1.0;" x1="228" x2="270" y1="1547.125" y2="1547.125"/><line style="stroke: #A80036; stroke-width: 1.0;" x1="270" x2="270" y1="1547.125" y2="1560.125"/><line style="stroke: #A80036; stroke-width: 1.0;" x1="229" x2="270" y1="1560.125" y2="1560.125"/><polygon fill="#A80036" points="239,1556.125,229,1560.125,239,1564.125,235,1560.125" style="stroke: #A80036; stroke-width: 1.0;"/><text fill="#000000" font-family="sans-serif" font-size="13" lengthAdjust="spacingAndGlyphs" textLength="95" x="235" y="1542.2686">git merge --abort</text><rect fill="#EEEEEE" filter="url(#f1vo4hz4ivt8bl)" height="3" style="stroke: #EEEEEE; stroke-width: 1.0;" width="973" x="3" y="1596.3008"/><line style="stroke: #000000; stroke-width: 1.0;" x1="3" x2="976" y1="1596.3008" y2="1596.3008"/><line style="stroke: #000000; stroke-width: 1.0;" x1="3" x2="976" y1="1599.3008" y2="1599.3008"/><rect fill="#EEEEEE" filter="url(#f1vo4hz4ivt8bl)" height="24.3516" style="stroke: #000000; stroke-width: 2.0;" width="147" x="416" y="1585.125"/><text fill="#000000" font-family="sans-serif" font-size="13" font-weight="bold" lengthAdjust="spacingAndGlyphs" textLength="129" x="422" y="1602.6201">remotoの履歴を取得</text><polygon fill="#A80036" points="239,1637.8281,229,1641.8281,239,1645.8281,235,1641.8281" style="stroke: #A80036; stroke-width: 1.0;"/><line style="stroke: #A80036; stroke-width: 1.0;" x1="233" x2="682" y1="1641.8281" y2="1641.8281"/><text fill="#000000" font-family="sans-serif" font-size="13" lengthAdjust="spacingAndGlyphs" textLength="133" x="245" y="1636.9717">git fetch origin [master]</text><line style="stroke: #A80036; stroke-width: 1.0;" x1="228" x2="270" y1="1672.1797" y2="1672.1797"/><line style="stroke: #A80036; stroke-width: 1.0;" x1="270" x2="270" y1="1672.1797" y2="1685.1797"/><line style="stroke: #A80036; stroke-width: 1.0;" x1="229" x2="270" y1="1685.1797" y2="1685.1797"/><polygon fill="#A80036" points="239,1681.1797,229,1685.1797,239,1689.1797,235,1685.1797" style="stroke: #A80036; stroke-width: 1.0;"/><text fill="#000000" font-family="sans-serif" font-size="13" lengthAdjust="spacingAndGlyphs" textLength="141" x="235" y="1667.3232">git merge origin/[master]</text><path d="M122,1700.1797 L187,1700.1797 L187,1708.1797 L177,1718.1797 L122,1718.1797 L122,1700.1797 " fill="#EEEEEE" style="stroke: #000000; stroke-width: 1.0;"/><rect fill="none" height="48.7031" style="stroke: #000000; stroke-width: 2.0;" width="667" x="122" y="1700.1797"/><text fill="#000000" font-family="sans-serif" font-size="13" font-weight="bold" lengthAdjust="spacingAndGlyphs" textLength="20" x="137" y="1714.6748">opt</text><text fill="#000000" font-family="sans-serif" font-size="11" font-weight="bold" lengthAdjust="spacingAndGlyphs" textLength="157" x="202" y="1713.5986">[fetchとmergeを同時に行う]</text><polygon fill="#A80036" points="239,1736.8828,229,1740.8828,239,1744.8828,235,1740.8828" style="stroke: #A80036; stroke-width: 1.0;"/><line style="stroke: #A80036; stroke-width: 1.0;" x1="233" x2="682" y1="1740.8828" y2="1740.8828"/><text fill="#000000" font-family="sans-serif" font-size="13" lengthAdjust="spacingAndGlyphs" textLength="125" x="245" y="1736.0264">git pull origin [master]</text><rect fill="#EEEEEE" filter="url(#f1vo4hz4ivt8bl)" height="3" style="stroke: #EEEEEE; stroke-width: 1.0;" width="973" x="3" y="1777.0586"/><line style="stroke: #000000; stroke-width: 1.0;" x1="3" x2="976" y1="1777.0586" y2="1777.0586"/><line style="stroke: #000000; stroke-width: 1.0;" x1="3" x2="976" y1="1780.0586" y2="1780.0586"/><rect fill="#EEEEEE" filter="url(#f1vo4hz4ivt8bl)" height="24.3516" style="stroke: #000000; stroke-width: 2.0;" width="88" x="445.5" y="1765.8828"/><text fill="#000000" font-family="sans-serif" font-size="13" font-weight="bold" lengthAdjust="spacingAndGlyphs" textLength="70" x="451.5" y="1783.3779">タグの作成</text><line style="stroke: #A80036; stroke-width: 1.0;" x1="228" x2="270" y1="1822.5859" y2="1822.5859"/><line style="stroke: #A80036; stroke-width: 1.0;" x1="270" x2="270" y1="1822.5859" y2="1835.5859"/><line style="stroke: #A80036; stroke-width: 1.0;" x1="229" x2="270" y1="1835.5859" y2="1835.5859"/><polygon fill="#A80036" points="239,1831.5859,229,1835.5859,239,1839.5859,235,1835.5859" style="stroke: #A80036; stroke-width: 1.0;"/><text fill="#000000" font-family="sans-serif" font-size="13" lengthAdjust="spacingAndGlyphs" textLength="181" x="235" y="1817.7295">git tag -a [v1.0] -m "[comment]"</text><polygon fill="#A80036" points="671,1861.9375,681,1865.9375,671,1869.9375,675,1865.9375" style="stroke: #A80036; stroke-width: 1.0;"/><line style="stroke: #A80036; stroke-width: 1.0;" x1="228" x2="677" y1="1865.9375" y2="1865.9375"/><text fill="#000000" font-family="sans-serif" font-size="13" lengthAdjust="spacingAndGlyphs" textLength="116" x="235" y="1861.0811">git push origin [v1.0]</text><path d="M122,1880.9375 L187,1880.9375 L187,1888.9375 L177,1898.9375 L122,1898.9375 L122,1880.9375 " fill="#EEEEEE" style="stroke: #000000; stroke-width: 1.0;"/><rect fill="none" height="61.7031" style="stroke: #000000; stroke-width: 2.0;" width="212" x="122" y="1880.9375"/><text fill="#000000" font-family="sans-serif" font-size="13" font-weight="bold" lengthAdjust="spacingAndGlyphs" textLength="20" x="137" y="1895.4326">opt</text><text fill="#000000" font-family="sans-serif" font-size="11" font-weight="bold" lengthAdjust="spacingAndGlyphs" textLength="56" x="202" y="1894.3564">[一覧表示]</text><line style="stroke: #A80036; stroke-width: 1.0;" x1="228" x2="270" y1="1921.6406" y2="1921.6406"/><line style="stroke: #A80036; stroke-width: 1.0;" x1="270" x2="270" y1="1921.6406" y2="1934.6406"/><line style="stroke: #A80036; stroke-width: 1.0;" x1="229" x2="270" y1="1934.6406" y2="1934.6406"/><polygon fill="#A80036" points="239,1930.6406,229,1934.6406,239,1938.6406,235,1934.6406" style="stroke: #A80036; stroke-width: 1.0;"/><text fill="#000000" font-family="sans-serif" font-size="13" lengthAdjust="spacingAndGlyphs" textLength="36" x="235" y="1916.7842">git tag</text><rect fill="#EEEEEE" filter="url(#f1vo4hz4ivt8bl)" height="3" style="stroke: #EEEEEE; stroke-width: 1.0;" width="973" x="3" y="1970.8164"/><line style="stroke: #000000; stroke-width: 1.0;" x1="3" x2="976" y1="1970.8164" y2="1970.8164"/><line style="stroke: #000000; stroke-width: 1.0;" x1="3" x2="976" y1="1973.8164" y2="1973.8164"/><rect fill="#EEEEEE" filter="url(#f1vo4hz4ivt8bl)" height="24.3516" style="stroke: #000000; stroke-width: 2.0;" width="195" x="392" y="1959.6406"/><text fill="#000000" font-family="sans-serif" font-size="13" font-weight="bold" lengthAdjust="spacingAndGlyphs" textLength="177" x="398" y="1977.1357">[master]のファイル名の変更</text><path d="M122,2000.9922 L187,2000.9922 L187,2008.9922 L177,2018.9922 L122,2018.9922 L122,2000.9922 " fill="#EEEEEE" style="stroke: #000000; stroke-width: 1.0;"/><rect fill="none" height="48.7031" style="stroke: #000000; stroke-width: 2.0;" width="405" x="122" y="2000.9922"/><text fill="#000000" font-family="sans-serif" font-size="13" font-weight="bold" lengthAdjust="spacingAndGlyphs" textLength="20" x="137" y="2015.4873">opt</text><text fill="#000000" font-family="sans-serif" font-size="11" font-weight="bold" lengthAdjust="spacingAndGlyphs" textLength="188" x="202" y="2014.4111">[[master]ブランチでなければ移動]</text><polygon fill="#A80036" points="239,2037.6953,229,2041.6953,239,2045.6953,235,2041.6953" style="stroke: #A80036; stroke-width: 1.0;"/><line style="stroke: #A80036; stroke-width: 1.0;" x1="233" x2="440" y1="2041.6953" y2="2041.6953"/><text fill="#000000" font-family="sans-serif" font-size="13" lengthAdjust="spacingAndGlyphs" textLength="123" x="245" y="2036.8389">git checkout [master]</text><line style="stroke: #A80036; stroke-width: 1.0;" x1="228" x2="270" y1="2079.0469" y2="2079.0469"/><line style="stroke: #A80036; stroke-width: 1.0;" x1="270" x2="270" y1="2079.0469" y2="2092.0469"/><line style="stroke: #A80036; stroke-width: 1.0;" x1="229" x2="270" y1="2092.0469" y2="2092.0469"/><polygon fill="#A80036" points="239,2088.0469,229,2092.0469,239,2096.0469,235,2092.0469" style="stroke: #A80036; stroke-width: 1.0;"/><text fill="#000000" font-family="sans-serif" font-size="13" lengthAdjust="spacingAndGlyphs" textLength="162" x="235" y="2074.1904">git mv [oldname] [newname]</text><line style="stroke: #A80036; stroke-width: 1.0;" x1="228" x2="270" y1="2122.3984" y2="2122.3984"/><line style="stroke: #A80036; stroke-width: 1.0;" x1="270" x2="270" y1="2122.3984" y2="2135.3984"/><line style="stroke: #A80036; stroke-width: 1.0;" x1="229" x2="270" y1="2135.3984" y2="2135.3984"/><polygon fill="#A80036" points="239,2131.3984,229,2135.3984,239,2139.3984,235,2135.3984" style="stroke: #A80036; stroke-width: 1.0;"/><text fill="#000000" font-family="sans-serif" font-size="13" lengthAdjust="spacingAndGlyphs" textLength="171" x="235" y="2117.542">git commit -a -m "[comment]"</text><polygon fill="#A80036" points="671,2161.75,681,2165.75,671,2169.75,675,2165.75" style="stroke: #A80036; stroke-width: 1.0;"/><line style="stroke: #A80036; stroke-width: 1.0;" x1="228" x2="677" y1="2165.75" y2="2165.75"/><text fill="#000000" font-family="sans-serif" font-size="13" lengthAdjust="spacingAndGlyphs" textLength="133" x="235" y="2160.8936">git push origin [master]</text><rect fill="#EEEEEE" filter="url(#f1vo4hz4ivt8bl)" height="3" style="stroke: #EEEEEE; stroke-width: 1.0;" width="973" x="3" y="2194.9258"/><line style="stroke: #000000; stroke-width: 1.0;" x1="3" x2="976" y1="2194.9258" y2="2194.9258"/><line style="stroke: #000000; stroke-width: 1.0;" x1="3" x2="976" y1="2197.9258" y2="2197.9258"/><rect fill="#EEEEEE" filter="url(#f1vo4hz4ivt8bl)" height="24.3516" style="stroke: #000000; stroke-width: 2.0;" width="178" x="400.5" y="2183.75"/><text fill="#000000" font-family="sans-serif" font-size="13" font-weight="bold" lengthAdjust="spacingAndGlyphs" textLength="160" x="406.5" y="2201.2451">[featureA]ブランチを削除</text><polygon fill="#A80036" points="429,2236.4531,439,2240.4531,429,2244.4531,433,2240.4531" style="stroke: #A80036; stroke-width: 1.0;"/><line style="stroke: #A80036; stroke-width: 1.0;" x1="228" x2="435" y1="2240.4531" y2="2240.4531"/><text fill="#000000" font-family="sans-serif" font-size="13" lengthAdjust="spacingAndGlyphs" textLength="132" x="235" y="2235.5967">git branch -d [featureA]</text><polygon fill="#A80036" points="853,2266.8047,863,2270.8047,853,2274.8047,857,2270.8047" style="stroke: #A80036; stroke-width: 1.0;"/><line style="stroke: #A80036; stroke-width: 1.0;" x1="228" x2="859" y1="2270.8047" y2="2270.8047"/><text fill="#000000" font-family="sans-serif" font-size="13" lengthAdjust="spacingAndGlyphs" textLength="188" x="235" y="2265.9482">git push --delete origin [featureA]</text><!--MD5=[17baef3def390239aab11da5cc2f34b9]
@startuml　git-command-cheat-sheet

skinparam participantPadding 40
skinparam BoxPadding 30

actor developer as developer
box "local" #LightBlue
participant  "master or main" as lmaster
participant  featureA as lfeatureA
end box

box "remote" #PaleGreen
participant  "master or main"  as rmaster
participant  featureA as rfeatureA
end box

== リポジトリ作成 ==
alt リポジトリが存在している
developer <- rmaster : git clone [URL]
else 存在していない
developer -> lmaster : git init
lmaster -> lmaster : git add .
lmaster -> lmaster : git commit -m "First commit"
lmaster -> lmaster : git remote add origin remote [URL]
lmaster -> rmaster : git push origin [master]
end

== [featureA]ブランチを[master]から作成 ==
lmaster -> lfeatureA : git branch [featureA] [master]

== [featureA]ブランチへ移動 ==
lmaster -> lfeatureA : git checkout [featureA]
opt gitのバージョンが[2.23.0]以上の場合switchが利用可能 
lmaster -> lfeatureA : git switch -c [featureA]
end

== ステージング ==
lfeatureA -> lfeatureA : git add [file]
opt ステージから外す
lfeatureA -> lfeatureA : git reset [file]
end

== 編集を一時退避 ==
lfeatureA -> lfeatureA : git stash
opt 元に戻す
lfeatureA -> lfeatureA : git stash pop
else 退避一覧を表示
lfeatureA -> lfeatureA : git stash list
else 退避を削除
lfeatureA -> lfeatureA : git stash clear
end

== 編集差分の確認 ==
lfeatureA -> lfeatureA : git diff

== コミット ==
lfeatureA -> lfeatureA : git commit -a -m "[comment]"

== [featureA]ブランチをremoteへ送信 ==
lfeatureA -> rfeatureA : git push origin [featureA]

== [featureA]ブランチを[master]へマージ ==
opt [master]ブランチでなければ移動
lmaster <- lfeatureA : git checkout [master]
end
lmaster -> lmaster : git merge [featureA]
lmaster -> rmaster : git push origin [master]
opt マージを取り消す
lmaster -> lmaster : git merge - -abort
end 

== remotoの履歴を取得 ==
lmaster <- rmaster : git fetch origin [master]
lmaster -> lmaster : git merge origin/[master]
opt fetchとmergeを同時に行う
lmaster <- rmaster : git pull origin [master]
end

== タグの作成 ==
lmaster -> lmaster : git tag -a [v1.0] -m "[comment]"
lmaster -> rmaster : git push origin [v1.0]
opt 一覧表示
lmaster -> lmaster : git tag
end

== [master]のファイル名の変更 ==
opt [master]ブランチでなければ移動
lmaster <- lfeatureA : git checkout [master]
end
lmaster -> lmaster : git mv [oldname] [newname]
lmaster -> lmaster :git commit -a -m "[comment]"
lmaster -> rmaster :git push origin [master]

== [featureA]ブランチを削除 ==
lmaster -> lfeatureA : git branch -d [featureA]
lmaster -> rfeatureA : git push - -delete origin [featureA]

@enduml

PlantUML version 1.2020.15(Sun Jun 28 20:39:45 JST 2020)
(GPL source distribution)
Java Runtime: Java(TM) SE Runtime Environment
JVM: Java HotSpot(TM) 64-Bit Server VM
Default Encoding: MS932
Language: ja
Country: JP
--></g></svg>