<?xml version="1.0" encoding="UTF-8" standalone="no"?><svg xmlns="http://www.w3.org/2000/svg" xmlns:xlink="http://www.w3.org/1999/xlink" contentScriptType="application/ecmascript" contentStyleType="text/css" height="2310px" preserveAspectRatio="none" style="width:1095px;height:2310px;" version="1.1" viewBox="0 0 1095 2310" width="1095px" zoomAndPan="magnify"><defs><filter height="300%" id="flxwwfgjbm89i" width="300%" x="-1" y="-1"><feGaussianBlur result="blurOut" stdDeviation="2.0"/><feColorMatrix in="blurOut" result="blurOut2" type="matrix" values="0 0 0 0 0 0 0 0 0 0 0 0 0 0 0 0 0 0 .4 0"/><feOffset dx="4.0" dy="4.0" in="blurOut2" result="blurOut3"/><feBlend in="SourceGraphic" in2="blurOut3" mode="normal"/></filter></defs><g><rect fill="#E0FFFF" height="2298.4453" style="stroke:#A80036;stroke-width:1.0;" width="434" x="135" y="6"/><text fill="#000000" font-family="sans-serif" font-size="13" font-weight="bold" lengthAdjust="spacing" textLength="35" x="334.5" y="18.0669">local</text><rect fill="#ADD8E6" height="2298.4453" style="stroke:#A80036;stroke-width:1.0;" width="426" x="631" y="6"/><text fill="#000000" font-family="sans-serif" font-size="13" font-weight="bold" lengthAdjust="spacing" textLength="57" x="815.5" y="18.0669">remote</text><rect fill="#FFFFFF" filter="url(#flxwwfgjbm89i)" height="245.7344" style="stroke:#000000;stroke-width:2.0;" width="862" x="10" y="148.4297"/><rect fill="#FFFFFF" height="199.4688" style="stroke:none;stroke-width:1.0;" width="862" x="10" y="194.6953"/><rect fill="#FFFFFF" filter="url(#flxwwfgjbm89i)" height="46.2656" style="stroke:#000000;stroke-width:2.0;" width="446" x="129" y="552.6953"/><rect fill="#FFFFFF" filter="url(#flxwwfgjbm89i)" height="59.2656" style="stroke:#000000;stroke-width:2.0;" width="205.5" x="374" y="698.2266"/><rect fill="#FFFFFF" filter="url(#flxwwfgjbm89i)" height="173.1406" style="stroke:#000000;stroke-width:2.0;" width="209.5" x="374" y="856.7578"/><rect fill="#FFFFFF" height="56.9375" style="stroke:none;stroke-width:1.0;" width="209.5" x="374" y="916.0234"/><rect fill="#FFFFFF" height="56.9375" style="stroke:none;stroke-width:1.0;" width="209.5" x="374" y="972.9609"/><rect fill="#FFFFFF" filter="url(#flxwwfgjbm89i)" height="46.2656" style="stroke:#000000;stroke-width:2.0;" width="446" x="129" y="1329.8281"/><rect fill="#FFFFFF" filter="url(#flxwwfgjbm89i)" height="59.2656" style="stroke:#000000;stroke-width:2.0;" width="252.5" x="129" y="1461.3594"/><rect fill="#FFFFFF" filter="url(#flxwwfgjbm89i)" height="46.2656" style="stroke:#000000;stroke-width:2.0;" width="743" x="129" y="1649.0234"/><rect fill="#FFFFFF" filter="url(#flxwwfgjbm89i)" height="59.2656" style="stroke:#000000;stroke-width:2.0;" width="247" x="129" y="1823.6875"/><rect fill="#FFFFFF" filter="url(#flxwwfgjbm89i)" height="46.2656" style="stroke:#000000;stroke-width:2.0;" width="446" x="129" y="1940.0859"/><line style="stroke:#A80036;stroke-width:1.0;stroke-dasharray:5.0,5.0;" x1="59" x2="59" y1="88.2969" y2="2218.1484"/><line style="stroke:#A80036;stroke-width:1.0;stroke-dasharray:5.0,5.0;" x1="252" x2="252" y1="88.2969" y2="2218.1484"/><line style="stroke:#A80036;stroke-width:1.0;stroke-dasharray:5.0,5.0;" x1="474" x2="474" y1="88.2969" y2="2218.1484"/><line style="stroke:#A80036;stroke-width:1.0;stroke-dasharray:5.0,5.0;" x1="748" x2="748" y1="88.2969" y2="2218.1484"/><line style="stroke:#A80036;stroke-width:1.0;stroke-dasharray:5.0,5.0;" x1="962" x2="962" y1="88.2969" y2="2218.1484"/><text fill="#000000" font-family="sans-serif" font-size="14" lengthAdjust="spacing" textLength="73" x="20" y="84.9951">developer</text><ellipse cx="59.5" cy="15" fill="#FEFECE" filter="url(#flxwwfgjbm89i)" rx="8" ry="8" style="stroke:#A80036;stroke-width:2.0;"/><path d="M59.5,23 L59.5,50 M46.5,31 L72.5,31 M59.5,50 L46.5,65 M59.5,50 L72.5,65 " fill="none" filter="url(#flxwwfgjbm89i)" style="stroke:#A80036;stroke-width:2.0;"/><text fill="#000000" font-family="sans-serif" font-size="14" lengthAdjust="spacing" textLength="73" x="20" y="2230.1436">developer</text><ellipse cx="59.5" cy="2243.4453" fill="#FEFECE" filter="url(#flxwwfgjbm89i)" rx="8" ry="8" style="stroke:#A80036;stroke-width:2.0;"/><path d="M59.5,2251.4453 L59.5,2278.4453 M46.5,2259.4453 L72.5,2259.4453 M59.5,2278.4453 L46.5,2293.4453 M59.5,2278.4453 L72.5,2293.4453 " fill="none" filter="url(#flxwwfgjbm89i)" style="stroke:#A80036;stroke-width:2.0;"/><rect fill="#FEFECE" filter="url(#flxwwfgjbm89i)" height="30.2969" style="stroke:#A80036;stroke-width:1.5;" width="123" x="189" y="53"/><text fill="#000000" font-family="sans-serif" font-size="14" lengthAdjust="spacing" textLength="109" x="196" y="72.9951">master or main</text><rect fill="#FEFECE" filter="url(#flxwwfgjbm89i)" height="30.2969" style="stroke:#A80036;stroke-width:1.5;" width="123" x="189" y="2217.1484"/><text fill="#000000" font-family="sans-serif" font-size="14" lengthAdjust="spacing" textLength="109" x="196" y="2237.1436">master or main</text><rect fill="#FEFECE" filter="url(#flxwwfgjbm89i)" height="30.2969" style="stroke:#A80036;stroke-width:1.5;" width="77" x="434" y="53"/><text fill="#000000" font-family="sans-serif" font-size="14" lengthAdjust="spacing" textLength="63" x="441" y="72.9951">featureA</text><rect fill="#FEFECE" filter="url(#flxwwfgjbm89i)" height="30.2969" style="stroke:#A80036;stroke-width:1.5;" width="77" x="434" y="2217.1484"/><text fill="#000000" font-family="sans-serif" font-size="14" lengthAdjust="spacing" textLength="63" x="441" y="2237.1436">featureA</text><rect fill="#FEFECE" filter="url(#flxwwfgjbm89i)" height="30.2969" style="stroke:#A80036;stroke-width:1.5;" width="123" x="685" y="53"/><text fill="#000000" font-family="sans-serif" font-size="14" lengthAdjust="spacing" textLength="109" x="692" y="72.9951">master or main</text><rect fill="#FEFECE" filter="url(#flxwwfgjbm89i)" height="30.2969" style="stroke:#A80036;stroke-width:1.5;" width="123" x="685" y="2217.1484"/><text fill="#000000" font-family="sans-serif" font-size="14" lengthAdjust="spacing" textLength="109" x="692" y="2237.1436">master or main</text><rect fill="#FEFECE" filter="url(#flxwwfgjbm89i)" height="30.2969" style="stroke:#A80036;stroke-width:1.5;" width="77" x="922" y="53"/><text fill="#000000" font-family="sans-serif" font-size="14" lengthAdjust="spacing" textLength="63" x="929" y="72.9951">featureA</text><rect fill="#FEFECE" filter="url(#flxwwfgjbm89i)" height="30.2969" style="stroke:#A80036;stroke-width:1.5;" width="77" x="922" y="2217.1484"/><text fill="#000000" font-family="sans-serif" font-size="14" lengthAdjust="spacing" textLength="63" x="929" y="2237.1436">featureA</text><rect fill="#EEEEEE" filter="url(#flxwwfgjbm89i)" height="3" style="stroke:#EEEEEE;stroke-width:1.0;" width="1088" x="0" y="118.8633"/><line style="stroke:#000000;stroke-width:1.0;" x1="0" x2="1088" y1="118.8633" y2="118.8633"/><line style="stroke:#000000;stroke-width:1.0;" x1="0" x2="1088" y1="121.8633" y2="121.8633"/><rect fill="#EEEEEE" filter="url(#flxwwfgjbm89i)" height="23.1328" style="stroke:#000000;stroke-width:2.0;" width="117" x="485.5" y="108.2969"/><text fill="#000000" font-family="sans-serif" font-size="13" font-weight="bold" lengthAdjust="spacing" textLength="98" x="491.5" y="124.3638">リポジトリ作成</text><path d="M10,148.4297 L76,148.4297 L76,155.4297 L66,165.4297 L10,165.4297 L10,148.4297 " fill="#EEEEEE" style="stroke:#000000;stroke-width:1.0;"/><rect fill="none" height="245.7344" style="stroke:#000000;stroke-width:2.0;" width="862" x="10" y="148.4297"/><text fill="#000000" font-family="sans-serif" font-size="13" font-weight="bold" lengthAdjust="spacing" textLength="21" x="25" y="161.4966">alt</text><text fill="#000000" font-family="sans-serif" font-size="11" font-weight="bold" lengthAdjust="spacing" textLength="142" x="91" y="160.6401">[リポジトリが存在している]</text><polygon fill="#A80036" points="70.5,182.6953,60.5,186.6953,70.5,190.6953,66.5,186.6953" style="stroke:#A80036;stroke-width:1.0;"/><line style="stroke:#A80036;stroke-width:1.0;" x1="64.5" x2="747.5" y1="186.6953" y2="186.6953"/><text fill="#000000" font-family="sans-serif" font-size="13" lengthAdjust="spacing" textLength="93" x="76.5" y="181.6294">git clone [URL]</text><line style="stroke:#000000;stroke-width:1.0;stroke-dasharray:2.0,2.0;" x1="10" x2="872" y1="195.6953" y2="195.6953"/><text fill="#000000" font-family="sans-serif" font-size="11" font-weight="bold" lengthAdjust="spacing" textLength="87" x="15" y="205.9058">[存在していない]</text><polygon fill="#A80036" points="240.5,226.6328,250.5,230.6328,240.5,234.6328,244.5,230.6328" style="stroke:#A80036;stroke-width:1.0;"/><line style="stroke:#A80036;stroke-width:1.0;" x1="59.5" x2="246.5" y1="230.6328" y2="230.6328"/><text fill="#000000" font-family="sans-serif" font-size="13" lengthAdjust="spacing" textLength="39" x="66.5" y="225.5669">git init</text><line style="stroke:#A80036;stroke-width:1.0;" x1="252.5" x2="294.5" y1="259.7656" y2="259.7656"/><line style="stroke:#A80036;stroke-width:1.0;" x1="294.5" x2="294.5" y1="259.7656" y2="272.7656"/><line style="stroke:#A80036;stroke-width:1.0;" x1="253.5" x2="294.5" y1="272.7656" y2="272.7656"/><polygon fill="#A80036" points="263.5,268.7656,253.5,272.7656,263.5,276.7656,259.5,272.7656" style="stroke:#A80036;stroke-width:1.0;"/><text fill="#000000" font-family="sans-serif" font-size="13" lengthAdjust="spacing" textLength="52" x="259.5" y="254.6997">git add .</text><line style="stroke:#A80036;stroke-width:1.0;" x1="252.5" x2="294.5" y1="301.8984" y2="301.8984"/><line style="stroke:#A80036;stroke-width:1.0;" x1="294.5" x2="294.5" y1="301.8984" y2="314.8984"/><line style="stroke:#A80036;stroke-width:1.0;" x1="253.5" x2="294.5" y1="314.8984" y2="314.8984"/><polygon fill="#A80036" points="263.5,310.8984,253.5,314.8984,263.5,318.8984,259.5,314.8984" style="stroke:#A80036;stroke-width:1.0;"/><text fill="#000000" font-family="sans-serif" font-size="13" lengthAdjust="spacing" textLength="185" x="259.5" y="296.8325">git commit -m "First commit"</text><line style="stroke:#A80036;stroke-width:1.0;" x1="252.5" x2="294.5" y1="344.0313" y2="344.0313"/><line style="stroke:#A80036;stroke-width:1.0;" x1="294.5" x2="294.5" y1="344.0313" y2="357.0313"/><line style="stroke:#A80036;stroke-width:1.0;" x1="253.5" x2="294.5" y1="357.0313" y2="357.0313"/><polygon fill="#A80036" points="263.5,353.0313,253.5,357.0313,263.5,361.0313,259.5,357.0313" style="stroke:#A80036;stroke-width:1.0;"/><text fill="#000000" font-family="sans-serif" font-size="13" lengthAdjust="spacing" textLength="173" x="259.5" y="338.9653">git remote add origin [URL]</text><polygon fill="#A80036" points="736.5,382.1641,746.5,386.1641,736.5,390.1641,740.5,386.1641" style="stroke:#A80036;stroke-width:1.0;"/><line style="stroke:#A80036;stroke-width:1.0;" x1="252.5" x2="742.5" y1="386.1641" y2="386.1641"/><text fill="#000000" font-family="sans-serif" font-size="13" lengthAdjust="spacing" textLength="150" x="259.5" y="381.0981">git push origin [master]</text><rect fill="#EEEEEE" filter="url(#flxwwfgjbm89i)" height="3" style="stroke:#EEEEEE;stroke-width:1.0;" width="1088" x="0" y="421.7305"/><line style="stroke:#000000;stroke-width:1.0;" x1="0" x2="1088" y1="421.7305" y2="421.7305"/><line style="stroke:#000000;stroke-width:1.0;" x1="0" x2="1088" y1="424.7305" y2="424.7305"/><rect fill="#EEEEEE" filter="url(#flxwwfgjbm89i)" height="23.1328" style="stroke:#000000;stroke-width:2.0;" width="292" x="398" y="411.1641"/><text fill="#000000" font-family="sans-serif" font-size="13" font-weight="bold" lengthAdjust="spacing" textLength="273" x="404" y="427.231">[featureA]ブランチを[master]から作成</text><polygon fill="#A80036" points="462.5,461.4297,472.5,465.4297,462.5,469.4297,466.5,465.4297" style="stroke:#A80036;stroke-width:1.0;"/><line style="stroke:#A80036;stroke-width:1.0;" x1="252.5" x2="468.5" y1="465.4297" y2="465.4297"/><text fill="#000000" font-family="sans-serif" font-size="13" lengthAdjust="spacing" textLength="194" x="259.5" y="460.3638">git branch [featureA] [master]</text><rect fill="#EEEEEE" filter="url(#flxwwfgjbm89i)" height="3" style="stroke:#EEEEEE;stroke-width:1.0;" width="1088" x="0" y="493.9961"/><line style="stroke:#000000;stroke-width:1.0;" x1="0" x2="1088" y1="493.9961" y2="493.9961"/><line style="stroke:#000000;stroke-width:1.0;" x1="0" x2="1088" y1="496.9961" y2="496.9961"/><rect fill="#EEEEEE" filter="url(#flxwwfgjbm89i)" height="23.1328" style="stroke:#000000;stroke-width:2.0;" width="197" x="445.5" y="483.4297"/><text fill="#000000" font-family="sans-serif" font-size="13" font-weight="bold" lengthAdjust="spacing" textLength="178" x="451.5" y="499.4966">[featureA]ブランチへ移動</text><polygon fill="#A80036" points="462.5,533.6953,472.5,537.6953,462.5,541.6953,466.5,537.6953" style="stroke:#A80036;stroke-width:1.0;"/><line style="stroke:#A80036;stroke-width:1.0;" x1="252.5" x2="468.5" y1="537.6953" y2="537.6953"/><text fill="#000000" font-family="sans-serif" font-size="13" lengthAdjust="spacing" textLength="148" x="259.5" y="532.6294">git checkout [featureA]</text><path d="M129,552.6953 L201,552.6953 L201,559.6953 L191,569.6953 L129,569.6953 L129,552.6953 " fill="#EEEEEE" style="stroke:#000000;stroke-width:1.0;"/><rect fill="none" height="46.2656" style="stroke:#000000;stroke-width:2.0;" width="446" x="129" y="552.6953"/><text fill="#000000" font-family="sans-serif" font-size="13" font-weight="bold" lengthAdjust="spacing" textLength="27" x="144" y="565.7622">opt</text><text fill="#000000" font-family="sans-serif" font-size="11" font-weight="bold" lengthAdjust="spacing" textLength="299" x="216" y="564.9058">[gitバージョンが[2.23.0]以上の場合switchが利用可能]</text><polygon fill="#A80036" points="462.5,586.9609,472.5,590.9609,462.5,594.9609,466.5,590.9609" style="stroke:#A80036;stroke-width:1.0;"/><line style="stroke:#A80036;stroke-width:1.0;" x1="252.5" x2="468.5" y1="590.9609" y2="590.9609"/><text fill="#000000" font-family="sans-serif" font-size="13" lengthAdjust="spacing" textLength="147" x="259.5" y="585.895">git switch -c [featureA]</text><rect fill="#EEEEEE" filter="url(#flxwwfgjbm89i)" height="3" style="stroke:#EEEEEE;stroke-width:1.0;" width="1088" x="0" y="626.5273"/><line style="stroke:#000000;stroke-width:1.0;" x1="0" x2="1088" y1="626.5273" y2="626.5273"/><line style="stroke:#000000;stroke-width:1.0;" x1="0" x2="1088" y1="629.5273" y2="629.5273"/><rect fill="#EEEEEE" filter="url(#flxwwfgjbm89i)" height="23.1328" style="stroke:#000000;stroke-width:2.0;" width="103" x="492.5" y="615.9609"/><text fill="#000000" font-family="sans-serif" font-size="13" font-weight="bold" lengthAdjust="spacing" textLength="84" x="498.5" y="632.0278">ステージング</text><line style="stroke:#A80036;stroke-width:1.0;" x1="474.5" x2="516.5" y1="670.2266" y2="670.2266"/><line style="stroke:#A80036;stroke-width:1.0;" x1="516.5" x2="516.5" y1="670.2266" y2="683.2266"/><line style="stroke:#A80036;stroke-width:1.0;" x1="475.5" x2="516.5" y1="683.2266" y2="683.2266"/><polygon fill="#A80036" points="485.5,679.2266,475.5,683.2266,485.5,687.2266,481.5,683.2266" style="stroke:#A80036;stroke-width:1.0;"/><text fill="#000000" font-family="sans-serif" font-size="13" lengthAdjust="spacing" textLength="77" x="481.5" y="665.1606">git add [file]</text><path d="M374,698.2266 L446,698.2266 L446,705.2266 L436,715.2266 L374,715.2266 L374,698.2266 " fill="#EEEEEE" style="stroke:#000000;stroke-width:1.0;"/><rect fill="none" height="59.2656" style="stroke:#000000;stroke-width:2.0;" width="205.5" x="374" y="698.2266"/><text fill="#000000" font-family="sans-serif" font-size="13" font-weight="bold" lengthAdjust="spacing" textLength="27" x="389" y="711.2935">opt</text><text fill="#000000" font-family="sans-serif" font-size="11" font-weight="bold" lengthAdjust="spacing" textLength="98" x="461" y="710.437">[ステージから外す]</text><line style="stroke:#A80036;stroke-width:1.0;" x1="474.5" x2="516.5" y1="736.4922" y2="736.4922"/><line style="stroke:#A80036;stroke-width:1.0;" x1="516.5" x2="516.5" y1="736.4922" y2="749.4922"/><line style="stroke:#A80036;stroke-width:1.0;" x1="475.5" x2="516.5" y1="749.4922" y2="749.4922"/><polygon fill="#A80036" points="485.5,745.4922,475.5,749.4922,485.5,753.4922,481.5,749.4922" style="stroke:#A80036;stroke-width:1.0;"/><text fill="#000000" font-family="sans-serif" font-size="13" lengthAdjust="spacing" textLength="86" x="481.5" y="731.4263">git reset [file]</text><rect fill="#EEEEEE" filter="url(#flxwwfgjbm89i)" height="3" style="stroke:#EEEEEE;stroke-width:1.0;" width="1088" x="0" y="785.0586"/><line style="stroke:#000000;stroke-width:1.0;" x1="0" x2="1088" y1="785.0586" y2="785.0586"/><line style="stroke:#000000;stroke-width:1.0;" x1="0" x2="1088" y1="788.0586" y2="788.0586"/><rect fill="#EEEEEE" filter="url(#flxwwfgjbm89i)" height="23.1328" style="stroke:#000000;stroke-width:2.0;" width="117" x="485.5" y="774.4922"/><text fill="#000000" font-family="sans-serif" font-size="13" font-weight="bold" lengthAdjust="spacing" textLength="98" x="491.5" y="790.5591">編集を一時退避</text><line style="stroke:#A80036;stroke-width:1.0;" x1="474.5" x2="516.5" y1="828.7578" y2="828.7578"/><line style="stroke:#A80036;stroke-width:1.0;" x1="516.5" x2="516.5" y1="828.7578" y2="841.7578"/><line style="stroke:#A80036;stroke-width:1.0;" x1="475.5" x2="516.5" y1="841.7578" y2="841.7578"/><polygon fill="#A80036" points="485.5,837.7578,475.5,841.7578,485.5,845.7578,481.5,841.7578" style="stroke:#A80036;stroke-width:1.0;"/><text fill="#000000" font-family="sans-serif" font-size="13" lengthAdjust="spacing" textLength="55" x="481.5" y="823.6919">git stash</text><path d="M374,856.7578 L446,856.7578 L446,863.7578 L436,873.7578 L374,873.7578 L374,856.7578 " fill="#EEEEEE" style="stroke:#000000;stroke-width:1.0;"/><rect fill="none" height="173.1406" style="stroke:#000000;stroke-width:2.0;" width="209.5" x="374" y="856.7578"/><text fill="#000000" font-family="sans-serif" font-size="13" font-weight="bold" lengthAdjust="spacing" textLength="27" x="389" y="869.8247">opt</text><text fill="#000000" font-family="sans-serif" font-size="11" font-weight="bold" lengthAdjust="spacing" textLength="54" x="461" y="868.9683">[元に戻す]</text><line style="stroke:#A80036;stroke-width:1.0;" x1="474.5" x2="516.5" y1="895.0234" y2="895.0234"/><line style="stroke:#A80036;stroke-width:1.0;" x1="516.5" x2="516.5" y1="895.0234" y2="908.0234"/><line style="stroke:#A80036;stroke-width:1.0;" x1="475.5" x2="516.5" y1="908.0234" y2="908.0234"/><polygon fill="#A80036" points="485.5,904.0234,475.5,908.0234,485.5,912.0234,481.5,908.0234" style="stroke:#A80036;stroke-width:1.0;"/><text fill="#000000" font-family="sans-serif" font-size="13" lengthAdjust="spacing" textLength="83" x="481.5" y="889.9575">git stash pop</text><line style="stroke:#000000;stroke-width:1.0;stroke-dasharray:2.0,2.0;" x1="374" x2="583.5" y1="917.0234" y2="917.0234"/><text fill="#000000" font-family="sans-serif" font-size="11" font-weight="bold" lengthAdjust="spacing" textLength="87" x="379" y="927.2339">[退避一覧を表示]</text><line style="stroke:#A80036;stroke-width:1.0;" x1="474.5" x2="516.5" y1="951.9609" y2="951.9609"/><line style="stroke:#A80036;stroke-width:1.0;" x1="516.5" x2="516.5" y1="951.9609" y2="964.9609"/><line style="stroke:#A80036;stroke-width:1.0;" x1="475.5" x2="516.5" y1="964.9609" y2="964.9609"/><polygon fill="#A80036" points="485.5,960.9609,475.5,964.9609,485.5,968.9609,481.5,964.9609" style="stroke:#A80036;stroke-width:1.0;"/><text fill="#000000" font-family="sans-serif" font-size="13" lengthAdjust="spacing" textLength="77" x="481.5" y="946.895">git stash list</text><line style="stroke:#000000;stroke-width:1.0;stroke-dasharray:2.0,2.0;" x1="374" x2="583.5" y1="973.9609" y2="973.9609"/><text fill="#000000" font-family="sans-serif" font-size="11" font-weight="bold" lengthAdjust="spacing" textLength="65" x="379" y="984.1714">[退避を削除]</text><line style="stroke:#A80036;stroke-width:1.0;" x1="474.5" x2="516.5" y1="1008.8984" y2="1008.8984"/><line style="stroke:#A80036;stroke-width:1.0;" x1="516.5" x2="516.5" y1="1008.8984" y2="1021.8984"/><line style="stroke:#A80036;stroke-width:1.0;" x1="475.5" x2="516.5" y1="1021.8984" y2="1021.8984"/><polygon fill="#A80036" points="485.5,1017.8984,475.5,1021.8984,485.5,1025.8984,481.5,1021.8984" style="stroke:#A80036;stroke-width:1.0;"/><text fill="#000000" font-family="sans-serif" font-size="13" lengthAdjust="spacing" textLength="90" x="481.5" y="1003.8325">git stash clear</text><rect fill="#EEEEEE" filter="url(#flxwwfgjbm89i)" height="3" style="stroke:#EEEEEE;stroke-width:1.0;" width="1088" x="0" y="1057.4648"/><line style="stroke:#000000;stroke-width:1.0;" x1="0" x2="1088" y1="1057.4648" y2="1057.4648"/><line style="stroke:#000000;stroke-width:1.0;" x1="0" x2="1088" y1="1060.4648" y2="1060.4648"/><rect fill="#EEEEEE" filter="url(#flxwwfgjbm89i)" height="23.1328" style="stroke:#000000;stroke-width:2.0;" width="117" x="485.5" y="1046.8984"/><text fill="#000000" font-family="sans-serif" font-size="13" font-weight="bold" lengthAdjust="spacing" textLength="98" x="491.5" y="1062.9653">編集差分の確認</text><line style="stroke:#A80036;stroke-width:1.0;" x1="474.5" x2="516.5" y1="1101.1641" y2="1101.1641"/><line style="stroke:#A80036;stroke-width:1.0;" x1="516.5" x2="516.5" y1="1101.1641" y2="1114.1641"/><line style="stroke:#A80036;stroke-width:1.0;" x1="475.5" x2="516.5" y1="1114.1641" y2="1114.1641"/><polygon fill="#A80036" points="485.5,1110.1641,475.5,1114.1641,485.5,1118.1641,481.5,1114.1641" style="stroke:#A80036;stroke-width:1.0;"/><text fill="#000000" font-family="sans-serif" font-size="13" lengthAdjust="spacing" textLength="41" x="481.5" y="1096.0981">git diff</text><rect fill="#EEEEEE" filter="url(#flxwwfgjbm89i)" height="3" style="stroke:#EEEEEE;stroke-width:1.0;" width="1088" x="0" y="1142.7305"/><line style="stroke:#000000;stroke-width:1.0;" x1="0" x2="1088" y1="1142.7305" y2="1142.7305"/><line style="stroke:#000000;stroke-width:1.0;" x1="0" x2="1088" y1="1145.7305" y2="1145.7305"/><rect fill="#EEEEEE" filter="url(#flxwwfgjbm89i)" height="23.1328" style="stroke:#000000;stroke-width:2.0;" width="75" x="506.5" y="1132.1641"/><text fill="#000000" font-family="sans-serif" font-size="13" font-weight="bold" lengthAdjust="spacing" textLength="56" x="512.5" y="1148.231">コミット</text><line style="stroke:#A80036;stroke-width:1.0;" x1="474.5" x2="516.5" y1="1186.4297" y2="1186.4297"/><line style="stroke:#A80036;stroke-width:1.0;" x1="516.5" x2="516.5" y1="1186.4297" y2="1199.4297"/><line style="stroke:#A80036;stroke-width:1.0;" x1="475.5" x2="516.5" y1="1199.4297" y2="1199.4297"/><polygon fill="#A80036" points="485.5,1195.4297,475.5,1199.4297,485.5,1203.4297,481.5,1199.4297" style="stroke:#A80036;stroke-width:1.0;"/><text fill="#000000" font-family="sans-serif" font-size="13" lengthAdjust="spacing" textLength="194" x="481.5" y="1181.3638">git commit -a -m "[comment]"</text><rect fill="#EEEEEE" filter="url(#flxwwfgjbm89i)" height="3" style="stroke:#EEEEEE;stroke-width:1.0;" width="1088" x="0" y="1227.9961"/><line style="stroke:#000000;stroke-width:1.0;" x1="0" x2="1088" y1="1227.9961" y2="1227.9961"/><line style="stroke:#000000;stroke-width:1.0;" x1="0" x2="1088" y1="1230.9961" y2="1230.9961"/><rect fill="#EEEEEE" filter="url(#flxwwfgjbm89i)" height="23.1328" style="stroke:#000000;stroke-width:2.0;" width="268" x="410" y="1217.4297"/><text fill="#000000" font-family="sans-serif" font-size="13" font-weight="bold" lengthAdjust="spacing" textLength="249" x="416" y="1233.4966">[featureA]ブランチをremoteへ送信</text><polygon fill="#A80036" points="950.5,1267.6953,960.5,1271.6953,950.5,1275.6953,954.5,1271.6953" style="stroke:#A80036;stroke-width:1.0;"/><line style="stroke:#A80036;stroke-width:1.0;" x1="474.5" x2="956.5" y1="1271.6953" y2="1271.6953"/><text fill="#000000" font-family="sans-serif" font-size="13" lengthAdjust="spacing" textLength="160" x="481.5" y="1266.6294">git push origin [featureA]</text><rect fill="#EEEEEE" filter="url(#flxwwfgjbm89i)" height="3" style="stroke:#EEEEEE;stroke-width:1.0;" width="1088" x="0" y="1300.2617"/><line style="stroke:#000000;stroke-width:1.0;" x1="0" x2="1088" y1="1300.2617" y2="1300.2617"/><line style="stroke:#000000;stroke-width:1.0;" x1="0" x2="1088" y1="1303.2617" y2="1303.2617"/><rect fill="#EEEEEE" filter="url(#flxwwfgjbm89i)" height="23.1328" style="stroke:#000000;stroke-width:2.0;" width="292" x="398" y="1289.6953"/><text fill="#000000" font-family="sans-serif" font-size="13" font-weight="bold" lengthAdjust="spacing" textLength="273" x="404" y="1305.7622">[featureA]ブランチを[master]へマージ</text><path d="M129,1329.8281 L201,1329.8281 L201,1336.8281 L191,1346.8281 L129,1346.8281 L129,1329.8281 " fill="#EEEEEE" style="stroke:#000000;stroke-width:1.0;"/><rect fill="none" height="46.2656" style="stroke:#000000;stroke-width:2.0;" width="446" x="129" y="1329.8281"/><text fill="#000000" font-family="sans-serif" font-size="13" font-weight="bold" lengthAdjust="spacing" textLength="27" x="144" y="1342.895">opt</text><text fill="#000000" font-family="sans-serif" font-size="11" font-weight="bold" lengthAdjust="spacing" textLength="189" x="216" y="1342.0386">[[master]ブランチでなければ移動]</text><polygon fill="#A80036" points="263.5,1364.0938,253.5,1368.0938,263.5,1372.0938,259.5,1368.0938" style="stroke:#A80036;stroke-width:1.0;"/><line style="stroke:#A80036;stroke-width:1.0;" x1="257.5" x2="473.5" y1="1368.0938" y2="1368.0938"/><text fill="#000000" font-family="sans-serif" font-size="13" lengthAdjust="spacing" textLength="138" x="269.5" y="1363.0278">git checkout [master]</text><line style="stroke:#A80036;stroke-width:1.0;" x1="252.5" x2="294.5" y1="1404.2266" y2="1404.2266"/><line style="stroke:#A80036;stroke-width:1.0;" x1="294.5" x2="294.5" y1="1404.2266" y2="1417.2266"/><line style="stroke:#A80036;stroke-width:1.0;" x1="253.5" x2="294.5" y1="1417.2266" y2="1417.2266"/><polygon fill="#A80036" points="263.5,1413.2266,253.5,1417.2266,263.5,1421.2266,259.5,1417.2266" style="stroke:#A80036;stroke-width:1.0;"/><text fill="#000000" font-family="sans-serif" font-size="13" lengthAdjust="spacing" textLength="132" x="259.5" y="1399.1606">git merge [featureA]</text><polygon fill="#A80036" points="736.5,1442.3594,746.5,1446.3594,736.5,1450.3594,740.5,1446.3594" style="stroke:#A80036;stroke-width:1.0;"/><line style="stroke:#A80036;stroke-width:1.0;" x1="252.5" x2="742.5" y1="1446.3594" y2="1446.3594"/><text fill="#000000" font-family="sans-serif" font-size="13" lengthAdjust="spacing" textLength="150" x="259.5" y="1441.2935">git push origin [master]</text><path d="M129,1461.3594 L201,1461.3594 L201,1468.3594 L191,1478.3594 L129,1478.3594 L129,1461.3594 " fill="#EEEEEE" style="stroke:#000000;stroke-width:1.0;"/><rect fill="none" height="59.2656" style="stroke:#000000;stroke-width:2.0;" width="252.5" x="129" y="1461.3594"/><text fill="#000000" font-family="sans-serif" font-size="13" font-weight="bold" lengthAdjust="spacing" textLength="27" x="144" y="1474.4263">opt</text><text fill="#000000" font-family="sans-serif" font-size="11" font-weight="bold" lengthAdjust="spacing" textLength="98" x="216" y="1473.5698">[マージを取り消す]</text><line style="stroke:#A80036;stroke-width:1.0;" x1="252.5" x2="294.5" y1="1499.625" y2="1499.625"/><line style="stroke:#A80036;stroke-width:1.0;" x1="294.5" x2="294.5" y1="1499.625" y2="1512.625"/><line style="stroke:#A80036;stroke-width:1.0;" x1="253.5" x2="294.5" y1="1512.625" y2="1512.625"/><polygon fill="#A80036" points="263.5,1508.625,253.5,1512.625,263.5,1516.625,259.5,1512.625" style="stroke:#A80036;stroke-width:1.0;"/><text fill="#000000" font-family="sans-serif" font-size="13" lengthAdjust="spacing" textLength="110" x="259.5" y="1494.5591">git merge --abort</text><rect fill="#EEEEEE" filter="url(#flxwwfgjbm89i)" height="3" style="stroke:#EEEEEE;stroke-width:1.0;" width="1088" x="0" y="1548.1914"/><line style="stroke:#000000;stroke-width:1.0;" x1="0" x2="1088" y1="1548.1914" y2="1548.1914"/><line style="stroke:#000000;stroke-width:1.0;" x1="0" x2="1088" y1="1551.1914" y2="1551.1914"/><rect fill="#EEEEEE" filter="url(#flxwwfgjbm89i)" height="23.1328" style="stroke:#000000;stroke-width:2.0;" width="161" x="463.5" y="1537.625"/><text fill="#000000" font-family="sans-serif" font-size="13" font-weight="bold" lengthAdjust="spacing" textLength="142" x="469.5" y="1553.6919">remotoの履歴を取得</text><polygon fill="#A80036" points="263.5,1587.8906,253.5,1591.8906,263.5,1595.8906,259.5,1591.8906" style="stroke:#A80036;stroke-width:1.0;"/><line style="stroke:#A80036;stroke-width:1.0;" x1="257.5" x2="747.5" y1="1591.8906" y2="1591.8906"/><text fill="#000000" font-family="sans-serif" font-size="13" lengthAdjust="spacing" textLength="152" x="269.5" y="1586.8247">git fetch origin [master]</text><line style="stroke:#A80036;stroke-width:1.0;" x1="252.5" x2="294.5" y1="1621.0234" y2="1621.0234"/><line style="stroke:#A80036;stroke-width:1.0;" x1="294.5" x2="294.5" y1="1621.0234" y2="1634.0234"/><line style="stroke:#A80036;stroke-width:1.0;" x1="253.5" x2="294.5" y1="1634.0234" y2="1634.0234"/><polygon fill="#A80036" points="263.5,1630.0234,253.5,1634.0234,263.5,1638.0234,259.5,1634.0234" style="stroke:#A80036;stroke-width:1.0;"/><text fill="#000000" font-family="sans-serif" font-size="13" lengthAdjust="spacing" textLength="161" x="259.5" y="1615.9575">git merge origin/[master]</text><path d="M129,1649.0234 L201,1649.0234 L201,1656.0234 L191,1666.0234 L129,1666.0234 L129,1649.0234 " fill="#EEEEEE" style="stroke:#000000;stroke-width:1.0;"/><rect fill="none" height="46.2656" style="stroke:#000000;stroke-width:2.0;" width="743" x="129" y="1649.0234"/><text fill="#000000" font-family="sans-serif" font-size="13" font-weight="bold" lengthAdjust="spacing" textLength="27" x="144" y="1662.0903">opt</text><text fill="#000000" font-family="sans-serif" font-size="11" font-weight="bold" lengthAdjust="spacing" textLength="166" x="216" y="1661.2339">[fetchとmergeを同時に行う]</text><polygon fill="#A80036" points="263.5,1683.2891,253.5,1687.2891,263.5,1691.2891,259.5,1687.2891" style="stroke:#A80036;stroke-width:1.0;"/><line style="stroke:#A80036;stroke-width:1.0;" x1="257.5" x2="747.5" y1="1687.2891" y2="1687.2891"/><text fill="#000000" font-family="sans-serif" font-size="13" lengthAdjust="spacing" textLength="141" x="269.5" y="1682.2231">git pull origin [master]</text><rect fill="#EEEEEE" filter="url(#flxwwfgjbm89i)" height="3" style="stroke:#EEEEEE;stroke-width:1.0;" width="1088" x="0" y="1722.8555"/><line style="stroke:#000000;stroke-width:1.0;" x1="0" x2="1088" y1="1722.8555" y2="1722.8555"/><line style="stroke:#000000;stroke-width:1.0;" x1="0" x2="1088" y1="1725.8555" y2="1725.8555"/><rect fill="#EEEEEE" filter="url(#flxwwfgjbm89i)" height="23.1328" style="stroke:#000000;stroke-width:2.0;" width="89" x="499.5" y="1712.2891"/><text fill="#000000" font-family="sans-serif" font-size="13" font-weight="bold" lengthAdjust="spacing" textLength="70" x="505.5" y="1728.356">タグの作成</text><line style="stroke:#A80036;stroke-width:1.0;" x1="252.5" x2="294.5" y1="1766.5547" y2="1766.5547"/><line style="stroke:#A80036;stroke-width:1.0;" x1="294.5" x2="294.5" y1="1766.5547" y2="1779.5547"/><line style="stroke:#A80036;stroke-width:1.0;" x1="253.5" x2="294.5" y1="1779.5547" y2="1779.5547"/><polygon fill="#A80036" points="263.5,1775.5547,253.5,1779.5547,263.5,1783.5547,259.5,1779.5547" style="stroke:#A80036;stroke-width:1.0;"/><text fill="#000000" font-family="sans-serif" font-size="13" lengthAdjust="spacing" textLength="208" x="259.5" y="1761.4888">git tag -a [v1.0] -m "[comment]"</text><polygon fill="#A80036" points="736.5,1804.6875,746.5,1808.6875,736.5,1812.6875,740.5,1808.6875" style="stroke:#A80036;stroke-width:1.0;"/><line style="stroke:#A80036;stroke-width:1.0;" x1="252.5" x2="742.5" y1="1808.6875" y2="1808.6875"/><text fill="#000000" font-family="sans-serif" font-size="13" lengthAdjust="spacing" textLength="132" x="259.5" y="1803.6216">git push origin [v1.0]</text><path d="M129,1823.6875 L201,1823.6875 L201,1830.6875 L191,1840.6875 L129,1840.6875 L129,1823.6875 " fill="#EEEEEE" style="stroke:#000000;stroke-width:1.0;"/><rect fill="none" height="59.2656" style="stroke:#000000;stroke-width:2.0;" width="247" x="129" y="1823.6875"/><text fill="#000000" font-family="sans-serif" font-size="13" font-weight="bold" lengthAdjust="spacing" textLength="27" x="144" y="1836.7544">opt</text><text fill="#000000" font-family="sans-serif" font-size="11" font-weight="bold" lengthAdjust="spacing" textLength="54" x="216" y="1835.8979">[一覧表示]</text><line style="stroke:#A80036;stroke-width:1.0;" x1="252.5" x2="294.5" y1="1861.9531" y2="1861.9531"/><line style="stroke:#A80036;stroke-width:1.0;" x1="294.5" x2="294.5" y1="1861.9531" y2="1874.9531"/><line style="stroke:#A80036;stroke-width:1.0;" x1="253.5" x2="294.5" y1="1874.9531" y2="1874.9531"/><polygon fill="#A80036" points="263.5,1870.9531,253.5,1874.9531,263.5,1878.9531,259.5,1874.9531" style="stroke:#A80036;stroke-width:1.0;"/><text fill="#000000" font-family="sans-serif" font-size="13" lengthAdjust="spacing" textLength="41" x="259.5" y="1856.8872">git tag</text><rect fill="#EEEEEE" filter="url(#flxwwfgjbm89i)" height="3" style="stroke:#EEEEEE;stroke-width:1.0;" width="1088" x="0" y="1910.5195"/><line style="stroke:#000000;stroke-width:1.0;" x1="0" x2="1088" y1="1910.5195" y2="1910.5195"/><line style="stroke:#000000;stroke-width:1.0;" x1="0" x2="1088" y1="1913.5195" y2="1913.5195"/><rect fill="#EEEEEE" filter="url(#flxwwfgjbm89i)" height="23.1328" style="stroke:#000000;stroke-width:2.0;" width="212" x="438" y="1899.9531"/><text fill="#000000" font-family="sans-serif" font-size="13" font-weight="bold" lengthAdjust="spacing" textLength="193" x="444" y="1916.02">[master]のファイル名の変更</text><path d="M129,1940.0859 L201,1940.0859 L201,1947.0859 L191,1957.0859 L129,1957.0859 L129,1940.0859 " fill="#EEEEEE" style="stroke:#000000;stroke-width:1.0;"/><rect fill="none" height="46.2656" style="stroke:#000000;stroke-width:2.0;" width="446" x="129" y="1940.0859"/><text fill="#000000" font-family="sans-serif" font-size="13" font-weight="bold" lengthAdjust="spacing" textLength="27" x="144" y="1953.1528">opt</text><text fill="#000000" font-family="sans-serif" font-size="11" font-weight="bold" lengthAdjust="spacing" textLength="189" x="216" y="1952.2964">[[master]ブランチでなければ移動]</text><polygon fill="#A80036" points="263.5,1974.3516,253.5,1978.3516,263.5,1982.3516,259.5,1978.3516" style="stroke:#A80036;stroke-width:1.0;"/><line style="stroke:#A80036;stroke-width:1.0;" x1="257.5" x2="473.5" y1="1978.3516" y2="1978.3516"/><text fill="#000000" font-family="sans-serif" font-size="13" lengthAdjust="spacing" textLength="138" x="269.5" y="1973.2856">git checkout [master]</text><line style="stroke:#A80036;stroke-width:1.0;" x1="252.5" x2="294.5" y1="2014.4844" y2="2014.4844"/><line style="stroke:#A80036;stroke-width:1.0;" x1="294.5" x2="294.5" y1="2014.4844" y2="2027.4844"/><line style="stroke:#A80036;stroke-width:1.0;" x1="253.5" x2="294.5" y1="2027.4844" y2="2027.4844"/><polygon fill="#A80036" points="263.5,2023.4844,253.5,2027.4844,263.5,2031.4844,259.5,2027.4844" style="stroke:#A80036;stroke-width:1.0;"/><text fill="#000000" font-family="sans-serif" font-size="13" lengthAdjust="spacing" textLength="189" x="259.5" y="2009.4185">git mv [oldname] [newname]</text><line style="stroke:#A80036;stroke-width:1.0;" x1="252.5" x2="294.5" y1="2056.6172" y2="2056.6172"/><line style="stroke:#A80036;stroke-width:1.0;" x1="294.5" x2="294.5" y1="2056.6172" y2="2069.6172"/><line style="stroke:#A80036;stroke-width:1.0;" x1="253.5" x2="294.5" y1="2069.6172" y2="2069.6172"/><polygon fill="#A80036" points="263.5,2065.6172,253.5,2069.6172,263.5,2073.6172,259.5,2069.6172" style="stroke:#A80036;stroke-width:1.0;"/><text fill="#000000" font-family="sans-serif" font-size="13" lengthAdjust="spacing" textLength="194" x="259.5" y="2051.5513">git commit -a -m "[comment]"</text><polygon fill="#A80036" points="736.5,2094.75,746.5,2098.75,736.5,2102.75,740.5,2098.75" style="stroke:#A80036;stroke-width:1.0;"/><line style="stroke:#A80036;stroke-width:1.0;" x1="252.5" x2="742.5" y1="2098.75" y2="2098.75"/><text fill="#000000" font-family="sans-serif" font-size="13" lengthAdjust="spacing" textLength="150" x="259.5" y="2093.6841">git push origin [master]</text><rect fill="#EEEEEE" filter="url(#flxwwfgjbm89i)" height="3" style="stroke:#EEEEEE;stroke-width:1.0;" width="1088" x="0" y="2127.3164"/><line style="stroke:#000000;stroke-width:1.0;" x1="0" x2="1088" y1="2127.3164" y2="2127.3164"/><line style="stroke:#000000;stroke-width:1.0;" x1="0" x2="1088" y1="2130.3164" y2="2130.3164"/><rect fill="#EEEEEE" filter="url(#flxwwfgjbm89i)" height="23.1328" style="stroke:#000000;stroke-width:2.0;" width="197" x="445.5" y="2116.75"/><text fill="#000000" font-family="sans-serif" font-size="13" font-weight="bold" lengthAdjust="spacing" textLength="178" x="451.5" y="2132.8169">[featureA]ブランチを削除</text><polygon fill="#A80036" points="462.5,2167.0156,472.5,2171.0156,462.5,2175.0156,466.5,2171.0156" style="stroke:#A80036;stroke-width:1.0;"/><line style="stroke:#A80036;stroke-width:1.0;" x1="252.5" x2="468.5" y1="2171.0156" y2="2171.0156"/><text fill="#000000" font-family="sans-serif" font-size="13" lengthAdjust="spacing" textLength="151" x="259.5" y="2165.9497">git branch -d [featureA]</text><polygon fill="#A80036" points="950.5,2196.1484,960.5,2200.1484,950.5,2204.1484,954.5,2200.1484" style="stroke:#A80036;stroke-width:1.0;"/><line style="stroke:#A80036;stroke-width:1.0;" x1="252.5" x2="956.5" y1="2200.1484" y2="2200.1484"/><text fill="#000000" font-family="sans-serif" font-size="13" lengthAdjust="spacing" textLength="214" x="259.5" y="2195.0825">git push --delete origin [featureA]</text><!--MD5=[58007b5dcf04b6ddb84d0d57161dd9c7]
@startuml
skinparam participantPadding 50
skinparam BoxPadding 30

actor developer as developer
box "local" #LightCyan
participant  "master or main" as lmaster
participant  featureA as lfeatureA
end box

box "remote" #LightBlue
participant  "master or main"  as rmaster
participant  featureA as rfeatureA
end box

== リポジトリ作成 ==
alt リポジトリが存在している
developer <- rmaster : git clone [URL]
else 存在していない
developer -> lmaster : git init
lmaster -> lmaster : git add .
lmaster -> lmaster : git commit -m "First commit"
lmaster -> lmaster : git remote add origin [URL]
lmaster -> rmaster : git push origin [master]
end

== [featureA]ブランチを[master]から作成 ==
lmaster -> lfeatureA : git branch [featureA] [master]

== [featureA]ブランチへ移動 ==
lmaster -> lfeatureA : git checkout [featureA]
opt gitバージョンが[2.23.0]以上の場合switchが利用可能 
lmaster -> lfeatureA : git switch -c [featureA]
end

== ステージング ==
lfeatureA -> lfeatureA : git add [file]
opt ステージから外す
lfeatureA -> lfeatureA : git reset [file]
end

== 編集を一時退避 ==
lfeatureA -> lfeatureA : git stash
opt 元に戻す
lfeatureA -> lfeatureA : git stash pop
else 退避一覧を表示
lfeatureA -> lfeatureA : git stash list
else 退避を削除
lfeatureA -> lfeatureA : git stash clear
end

== 編集差分の確認 ==
lfeatureA -> lfeatureA : git diff

== コミット ==
lfeatureA -> lfeatureA : git commit -a -m "[comment]"

== [featureA]ブランチをremoteへ送信 ==
lfeatureA -> rfeatureA : git push origin [featureA]

== [featureA]ブランチを[master]へマージ ==
opt [master]ブランチでなければ移動
lmaster <- lfeatureA : git checkout [master]
end
lmaster -> lmaster : git merge [featureA]
lmaster -> rmaster : git push origin [master]
opt マージを取り消す
lmaster -> lmaster : git merge - -abort
end 

== remotoの履歴を取得 ==
lmaster <- rmaster : git fetch origin [master]
lmaster -> lmaster : git merge origin/[master]
opt fetchとmergeを同時に行う
lmaster <- rmaster : git pull origin [master]
end

== タグの作成 ==
lmaster -> lmaster : git tag -a [v1.0] -m "[comment]"
lmaster -> rmaster : git push origin [v1.0]
opt 一覧表示
lmaster -> lmaster : git tag
end

== [master]のファイル名の変更 ==
opt [master]ブランチでなければ移動
lmaster <- lfeatureA : git checkout [master]
end
lmaster -> lmaster : git mv [oldname] [newname]
lmaster -> lmaster :git commit -a -m "[comment]"
lmaster -> rmaster :git push origin [master]

== [featureA]ブランチを削除 ==
lmaster -> lfeatureA : git branch -d [featureA]
lmaster -> rfeatureA : git push - -delete origin [featureA]
@enduml

PlantUML version 1.2021.01beta3(Unknown compile time)
(GPL source distribution)
Java Runtime: Java(TM) SE Runtime Environment
JVM: Java HotSpot(TM) 64-Bit Server VM
Default Encoding: UTF-8
Language: en
Country: US
--></g></svg>