<?xml version="1.0" encoding="UTF-8" standalone="no"?><svg xmlns="http://www.w3.org/2000/svg" xmlns:xlink="http://www.w3.org/1999/xlink" contentScriptType="application/ecmascript" contentStyleType="text/css" height="2352px" preserveAspectRatio="none" style="width:1095px;height:2352px;" version="1.1" viewBox="0 0 1095 2352" width="1095px" zoomAndPan="magnify"><defs><filter height="300%" id="f1uxo5eqd4a4ws" width="300%" x="-1" y="-1"><feGaussianBlur result="blurOut" stdDeviation="2.0"/><feColorMatrix in="blurOut" result="blurOut2" type="matrix" values="0 0 0 0 0 0 0 0 0 0 0 0 0 0 0 0 0 0 .4 0"/><feOffset dx="4.0" dy="4.0" in="blurOut2" result="blurOut3"/><feBlend in="SourceGraphic" in2="blurOut3" mode="normal"/></filter></defs><g><rect fill="#E0FFFF" height="2340.5781" style="stroke:#A80036;stroke-width:1.0;" width="434" x="135" y="6"/><text fill="#000000" font-family="sans-serif" font-size="13" font-weight="bold" lengthAdjust="spacing" textLength="35" x="334.5" y="18.0669">local</text><rect fill="#ADD8E6" height="2340.5781" style="stroke:#A80036;stroke-width:1.0;" width="426" x="631" y="6"/><text fill="#000000" font-family="sans-serif" font-size="13" font-weight="bold" lengthAdjust="spacing" textLength="57" x="815.5" y="18.0669">remote</text><rect fill="#FFFFFF" filter="url(#f1uxo5eqd4a4ws)" height="287.8672" style="stroke:#000000;stroke-width:2.0;" width="862" x="10" y="148.4297"/><rect fill="#FFFFFF" height="241.6016" style="stroke:none;stroke-width:1.0;" width="862" x="10" y="194.6953"/><rect fill="#FFFFFF" filter="url(#f1uxo5eqd4a4ws)" height="46.2656" style="stroke:#000000;stroke-width:2.0;" width="446" x="129" y="594.8281"/><rect fill="#FFFFFF" filter="url(#f1uxo5eqd4a4ws)" height="59.2656" style="stroke:#000000;stroke-width:2.0;" width="205.5" x="374" y="740.3594"/><rect fill="#FFFFFF" filter="url(#f1uxo5eqd4a4ws)" height="173.1406" style="stroke:#000000;stroke-width:2.0;" width="209.5" x="374" y="898.8906"/><rect fill="#FFFFFF" height="56.9375" style="stroke:none;stroke-width:1.0;" width="209.5" x="374" y="958.1563"/><rect fill="#FFFFFF" height="56.9375" style="stroke:none;stroke-width:1.0;" width="209.5" x="374" y="1015.0938"/><rect fill="#FFFFFF" filter="url(#f1uxo5eqd4a4ws)" height="46.2656" style="stroke:#000000;stroke-width:2.0;" width="446" x="129" y="1371.9609"/><rect fill="#FFFFFF" filter="url(#f1uxo5eqd4a4ws)" height="59.2656" style="stroke:#000000;stroke-width:2.0;" width="252.5" x="129" y="1503.4922"/><rect fill="#FFFFFF" filter="url(#f1uxo5eqd4a4ws)" height="46.2656" style="stroke:#000000;stroke-width:2.0;" width="743" x="129" y="1691.1563"/><rect fill="#FFFFFF" filter="url(#f1uxo5eqd4a4ws)" height="59.2656" style="stroke:#000000;stroke-width:2.0;" width="247" x="129" y="1865.8203"/><rect fill="#FFFFFF" filter="url(#f1uxo5eqd4a4ws)" height="46.2656" style="stroke:#000000;stroke-width:2.0;" width="446" x="129" y="1982.2188"/><line style="stroke:#A80036;stroke-width:1.0;stroke-dasharray:5.0,5.0;" x1="59" x2="59" y1="88.2969" y2="2260.2813"/><line style="stroke:#A80036;stroke-width:1.0;stroke-dasharray:5.0,5.0;" x1="252" x2="252" y1="88.2969" y2="2260.2813"/><line style="stroke:#A80036;stroke-width:1.0;stroke-dasharray:5.0,5.0;" x1="474" x2="474" y1="88.2969" y2="2260.2813"/><line style="stroke:#A80036;stroke-width:1.0;stroke-dasharray:5.0,5.0;" x1="748" x2="748" y1="88.2969" y2="2260.2813"/><line style="stroke:#A80036;stroke-width:1.0;stroke-dasharray:5.0,5.0;" x1="962" x2="962" y1="88.2969" y2="2260.2813"/><text fill="#000000" font-family="sans-serif" font-size="14" lengthAdjust="spacing" textLength="73" x="20" y="84.9951">developer</text><ellipse cx="59.5" cy="15" fill="#FEFECE" filter="url(#f1uxo5eqd4a4ws)" rx="8" ry="8" style="stroke:#A80036;stroke-width:2.0;"/><path d="M59.5,23 L59.5,50 M46.5,31 L72.5,31 M59.5,50 L46.5,65 M59.5,50 L72.5,65 " fill="none" filter="url(#f1uxo5eqd4a4ws)" style="stroke:#A80036;stroke-width:2.0;"/><text fill="#000000" font-family="sans-serif" font-size="14" lengthAdjust="spacing" textLength="73" x="20" y="2272.2764">developer</text><ellipse cx="59.5" cy="2285.5781" fill="#FEFECE" filter="url(#f1uxo5eqd4a4ws)" rx="8" ry="8" style="stroke:#A80036;stroke-width:2.0;"/><path d="M59.5,2293.5781 L59.5,2320.5781 M46.5,2301.5781 L72.5,2301.5781 M59.5,2320.5781 L46.5,2335.5781 M59.5,2320.5781 L72.5,2335.5781 " fill="none" filter="url(#f1uxo5eqd4a4ws)" style="stroke:#A80036;stroke-width:2.0;"/><rect fill="#FEFECE" filter="url(#f1uxo5eqd4a4ws)" height="30.2969" style="stroke:#A80036;stroke-width:1.5;" width="123" x="189" y="53"/><text fill="#000000" font-family="sans-serif" font-size="14" lengthAdjust="spacing" textLength="109" x="196" y="72.9951">master or main</text><rect fill="#FEFECE" filter="url(#f1uxo5eqd4a4ws)" height="30.2969" style="stroke:#A80036;stroke-width:1.5;" width="123" x="189" y="2259.2813"/><text fill="#000000" font-family="sans-serif" font-size="14" lengthAdjust="spacing" textLength="109" x="196" y="2279.2764">master or main</text><rect fill="#FEFECE" filter="url(#f1uxo5eqd4a4ws)" height="30.2969" style="stroke:#A80036;stroke-width:1.5;" width="77" x="434" y="53"/><text fill="#000000" font-family="sans-serif" font-size="14" lengthAdjust="spacing" textLength="63" x="441" y="72.9951">featureA</text><rect fill="#FEFECE" filter="url(#f1uxo5eqd4a4ws)" height="30.2969" style="stroke:#A80036;stroke-width:1.5;" width="77" x="434" y="2259.2813"/><text fill="#000000" font-family="sans-serif" font-size="14" lengthAdjust="spacing" textLength="63" x="441" y="2279.2764">featureA</text><rect fill="#FEFECE" filter="url(#f1uxo5eqd4a4ws)" height="30.2969" style="stroke:#A80036;stroke-width:1.5;" width="123" x="685" y="53"/><text fill="#000000" font-family="sans-serif" font-size="14" lengthAdjust="spacing" textLength="109" x="692" y="72.9951">master or main</text><rect fill="#FEFECE" filter="url(#f1uxo5eqd4a4ws)" height="30.2969" style="stroke:#A80036;stroke-width:1.5;" width="123" x="685" y="2259.2813"/><text fill="#000000" font-family="sans-serif" font-size="14" lengthAdjust="spacing" textLength="109" x="692" y="2279.2764">master or main</text><rect fill="#FEFECE" filter="url(#f1uxo5eqd4a4ws)" height="30.2969" style="stroke:#A80036;stroke-width:1.5;" width="77" x="922" y="53"/><text fill="#000000" font-family="sans-serif" font-size="14" lengthAdjust="spacing" textLength="63" x="929" y="72.9951">featureA</text><rect fill="#FEFECE" filter="url(#f1uxo5eqd4a4ws)" height="30.2969" style="stroke:#A80036;stroke-width:1.5;" width="77" x="922" y="2259.2813"/><text fill="#000000" font-family="sans-serif" font-size="14" lengthAdjust="spacing" textLength="63" x="929" y="2279.2764">featureA</text><rect fill="#EEEEEE" filter="url(#f1uxo5eqd4a4ws)" height="3" style="stroke:#EEEEEE;stroke-width:1.0;" width="1088" x="0" y="118.8633"/><line style="stroke:#000000;stroke-width:1.0;" x1="0" x2="1088" y1="118.8633" y2="118.8633"/><line style="stroke:#000000;stroke-width:1.0;" x1="0" x2="1088" y1="121.8633" y2="121.8633"/><rect fill="#EEEEEE" filter="url(#f1uxo5eqd4a4ws)" height="23.1328" style="stroke:#000000;stroke-width:2.0;" width="117" x="485.5" y="108.2969"/><text fill="#000000" font-family="sans-serif" font-size="13" font-weight="bold" lengthAdjust="spacing" textLength="98" x="491.5" y="124.3638">リポジトリ作成</text><path d="M10,148.4297 L76,148.4297 L76,155.4297 L66,165.4297 L10,165.4297 L10,148.4297 " fill="#EEEEEE" style="stroke:#000000;stroke-width:1.0;"/><rect fill="none" height="287.8672" style="stroke:#000000;stroke-width:2.0;" width="862" x="10" y="148.4297"/><text fill="#000000" font-family="sans-serif" font-size="13" font-weight="bold" lengthAdjust="spacing" textLength="21" x="25" y="161.4966">alt</text><text fill="#000000" font-family="sans-serif" font-size="11" font-weight="bold" lengthAdjust="spacing" textLength="142" x="91" y="160.6401">[リポジトリが存在している]</text><polygon fill="#A80036" points="70.5,182.6953,60.5,186.6953,70.5,190.6953,66.5,186.6953" style="stroke:#A80036;stroke-width:1.0;"/><line style="stroke:#A80036;stroke-width:1.0;" x1="64.5" x2="747.5" y1="186.6953" y2="186.6953"/><text fill="#000000" font-family="sans-serif" font-size="13" lengthAdjust="spacing" textLength="93" x="76.5" y="181.6294">git clone [URL]</text><line style="stroke:#000000;stroke-width:1.0;stroke-dasharray:2.0,2.0;" x1="10" x2="872" y1="195.6953" y2="195.6953"/><text fill="#000000" font-family="sans-serif" font-size="11" font-weight="bold" lengthAdjust="spacing" textLength="87" x="15" y="205.9058">[存在していない]</text><polygon fill="#A80036" points="240.5,226.6328,250.5,230.6328,240.5,234.6328,244.5,230.6328" style="stroke:#A80036;stroke-width:1.0;"/><line style="stroke:#A80036;stroke-width:1.0;" x1="59.5" x2="246.5" y1="230.6328" y2="230.6328"/><text fill="#000000" font-family="sans-serif" font-size="13" lengthAdjust="spacing" textLength="39" x="66.5" y="225.5669">git init</text><line style="stroke:#A80036;stroke-width:1.0;" x1="252.5" x2="294.5" y1="259.7656" y2="259.7656"/><line style="stroke:#A80036;stroke-width:1.0;" x1="294.5" x2="294.5" y1="259.7656" y2="272.7656"/><line style="stroke:#A80036;stroke-width:1.0;" x1="253.5" x2="294.5" y1="272.7656" y2="272.7656"/><polygon fill="#A80036" points="263.5,268.7656,253.5,272.7656,263.5,276.7656,259.5,272.7656" style="stroke:#A80036;stroke-width:1.0;"/><text fill="#000000" font-family="sans-serif" font-size="13" lengthAdjust="spacing" textLength="52" x="259.5" y="254.6997">git add .</text><line style="stroke:#A80036;stroke-width:1.0;" x1="252.5" x2="294.5" y1="301.8984" y2="301.8984"/><line style="stroke:#A80036;stroke-width:1.0;" x1="294.5" x2="294.5" y1="301.8984" y2="314.8984"/><line style="stroke:#A80036;stroke-width:1.0;" x1="253.5" x2="294.5" y1="314.8984" y2="314.8984"/><polygon fill="#A80036" points="263.5,310.8984,253.5,314.8984,263.5,318.8984,259.5,314.8984" style="stroke:#A80036;stroke-width:1.0;"/><text fill="#000000" font-family="sans-serif" font-size="13" lengthAdjust="spacing" textLength="183" x="259.5" y="296.8325">git commit -m "first commit"</text><line style="stroke:#A80036;stroke-width:1.0;" x1="252.5" x2="294.5" y1="344.0313" y2="344.0313"/><line style="stroke:#A80036;stroke-width:1.0;" x1="294.5" x2="294.5" y1="344.0313" y2="357.0313"/><line style="stroke:#A80036;stroke-width:1.0;" x1="253.5" x2="294.5" y1="357.0313" y2="357.0313"/><polygon fill="#A80036" points="263.5,353.0313,253.5,357.0313,263.5,361.0313,259.5,357.0313" style="stroke:#A80036;stroke-width:1.0;"/><text fill="#000000" font-family="sans-serif" font-size="13" lengthAdjust="spacing" textLength="143" x="259.5" y="338.9653">git branch -M [master]</text><line style="stroke:#A80036;stroke-width:1.0;" x1="252.5" x2="294.5" y1="386.1641" y2="386.1641"/><line style="stroke:#A80036;stroke-width:1.0;" x1="294.5" x2="294.5" y1="386.1641" y2="399.1641"/><line style="stroke:#A80036;stroke-width:1.0;" x1="253.5" x2="294.5" y1="399.1641" y2="399.1641"/><polygon fill="#A80036" points="263.5,395.1641,253.5,399.1641,263.5,403.1641,259.5,399.1641" style="stroke:#A80036;stroke-width:1.0;"/><text fill="#000000" font-family="sans-serif" font-size="13" lengthAdjust="spacing" textLength="173" x="259.5" y="381.0981">git remote add origin [URL]</text><polygon fill="#A80036" points="736.5,424.2969,746.5,428.2969,736.5,432.2969,740.5,428.2969" style="stroke:#A80036;stroke-width:1.0;"/><line style="stroke:#A80036;stroke-width:1.0;" x1="252.5" x2="742.5" y1="428.2969" y2="428.2969"/><text fill="#000000" font-family="sans-serif" font-size="13" lengthAdjust="spacing" textLength="150" x="259.5" y="423.231">git push origin [master]</text><rect fill="#EEEEEE" filter="url(#f1uxo5eqd4a4ws)" height="3" style="stroke:#EEEEEE;stroke-width:1.0;" width="1088" x="0" y="463.8633"/><line style="stroke:#000000;stroke-width:1.0;" x1="0" x2="1088" y1="463.8633" y2="463.8633"/><line style="stroke:#000000;stroke-width:1.0;" x1="0" x2="1088" y1="466.8633" y2="466.8633"/><rect fill="#EEEEEE" filter="url(#f1uxo5eqd4a4ws)" height="23.1328" style="stroke:#000000;stroke-width:2.0;" width="292" x="398" y="453.2969"/><text fill="#000000" font-family="sans-serif" font-size="13" font-weight="bold" lengthAdjust="spacing" textLength="273" x="404" y="469.3638">[featureA]ブランチを[master]から作成</text><polygon fill="#A80036" points="462.5,503.5625,472.5,507.5625,462.5,511.5625,466.5,507.5625" style="stroke:#A80036;stroke-width:1.0;"/><line style="stroke:#A80036;stroke-width:1.0;" x1="252.5" x2="468.5" y1="507.5625" y2="507.5625"/><text fill="#000000" font-family="sans-serif" font-size="13" lengthAdjust="spacing" textLength="194" x="259.5" y="502.4966">git branch [featureA] [master]</text><rect fill="#EEEEEE" filter="url(#f1uxo5eqd4a4ws)" height="3" style="stroke:#EEEEEE;stroke-width:1.0;" width="1088" x="0" y="536.1289"/><line style="stroke:#000000;stroke-width:1.0;" x1="0" x2="1088" y1="536.1289" y2="536.1289"/><line style="stroke:#000000;stroke-width:1.0;" x1="0" x2="1088" y1="539.1289" y2="539.1289"/><rect fill="#EEEEEE" filter="url(#f1uxo5eqd4a4ws)" height="23.1328" style="stroke:#000000;stroke-width:2.0;" width="197" x="445.5" y="525.5625"/><text fill="#000000" font-family="sans-serif" font-size="13" font-weight="bold" lengthAdjust="spacing" textLength="178" x="451.5" y="541.6294">[featureA]ブランチへ移動</text><polygon fill="#A80036" points="462.5,575.8281,472.5,579.8281,462.5,583.8281,466.5,579.8281" style="stroke:#A80036;stroke-width:1.0;"/><line style="stroke:#A80036;stroke-width:1.0;" x1="252.5" x2="468.5" y1="579.8281" y2="579.8281"/><text fill="#000000" font-family="sans-serif" font-size="13" lengthAdjust="spacing" textLength="148" x="259.5" y="574.7622">git checkout [featureA]</text><path d="M129,594.8281 L201,594.8281 L201,601.8281 L191,611.8281 L129,611.8281 L129,594.8281 " fill="#EEEEEE" style="stroke:#000000;stroke-width:1.0;"/><rect fill="none" height="46.2656" style="stroke:#000000;stroke-width:2.0;" width="446" x="129" y="594.8281"/><text fill="#000000" font-family="sans-serif" font-size="13" font-weight="bold" lengthAdjust="spacing" textLength="27" x="144" y="607.895">opt</text><text fill="#000000" font-family="sans-serif" font-size="11" font-weight="bold" lengthAdjust="spacing" textLength="299" x="216" y="607.0386">[gitバージョンが[2.23.0]以上の場合switchが利用可能]</text><polygon fill="#A80036" points="462.5,629.0938,472.5,633.0938,462.5,637.0938,466.5,633.0938" style="stroke:#A80036;stroke-width:1.0;"/><line style="stroke:#A80036;stroke-width:1.0;" x1="252.5" x2="468.5" y1="633.0938" y2="633.0938"/><text fill="#000000" font-family="sans-serif" font-size="13" lengthAdjust="spacing" textLength="147" x="259.5" y="628.0278">git switch -c [featureA]</text><rect fill="#EEEEEE" filter="url(#f1uxo5eqd4a4ws)" height="3" style="stroke:#EEEEEE;stroke-width:1.0;" width="1088" x="0" y="668.6602"/><line style="stroke:#000000;stroke-width:1.0;" x1="0" x2="1088" y1="668.6602" y2="668.6602"/><line style="stroke:#000000;stroke-width:1.0;" x1="0" x2="1088" y1="671.6602" y2="671.6602"/><rect fill="#EEEEEE" filter="url(#f1uxo5eqd4a4ws)" height="23.1328" style="stroke:#000000;stroke-width:2.0;" width="103" x="492.5" y="658.0938"/><text fill="#000000" font-family="sans-serif" font-size="13" font-weight="bold" lengthAdjust="spacing" textLength="84" x="498.5" y="674.1606">ステージング</text><line style="stroke:#A80036;stroke-width:1.0;" x1="474.5" x2="516.5" y1="712.3594" y2="712.3594"/><line style="stroke:#A80036;stroke-width:1.0;" x1="516.5" x2="516.5" y1="712.3594" y2="725.3594"/><line style="stroke:#A80036;stroke-width:1.0;" x1="475.5" x2="516.5" y1="725.3594" y2="725.3594"/><polygon fill="#A80036" points="485.5,721.3594,475.5,725.3594,485.5,729.3594,481.5,725.3594" style="stroke:#A80036;stroke-width:1.0;"/><text fill="#000000" font-family="sans-serif" font-size="13" lengthAdjust="spacing" textLength="77" x="481.5" y="707.2935">git add [file]</text><path d="M374,740.3594 L446,740.3594 L446,747.3594 L436,757.3594 L374,757.3594 L374,740.3594 " fill="#EEEEEE" style="stroke:#000000;stroke-width:1.0;"/><rect fill="none" height="59.2656" style="stroke:#000000;stroke-width:2.0;" width="205.5" x="374" y="740.3594"/><text fill="#000000" font-family="sans-serif" font-size="13" font-weight="bold" lengthAdjust="spacing" textLength="27" x="389" y="753.4263">opt</text><text fill="#000000" font-family="sans-serif" font-size="11" font-weight="bold" lengthAdjust="spacing" textLength="98" x="461" y="752.5698">[ステージから外す]</text><line style="stroke:#A80036;stroke-width:1.0;" x1="474.5" x2="516.5" y1="778.625" y2="778.625"/><line style="stroke:#A80036;stroke-width:1.0;" x1="516.5" x2="516.5" y1="778.625" y2="791.625"/><line style="stroke:#A80036;stroke-width:1.0;" x1="475.5" x2="516.5" y1="791.625" y2="791.625"/><polygon fill="#A80036" points="485.5,787.625,475.5,791.625,485.5,795.625,481.5,791.625" style="stroke:#A80036;stroke-width:1.0;"/><text fill="#000000" font-family="sans-serif" font-size="13" lengthAdjust="spacing" textLength="86" x="481.5" y="773.5591">git reset [file]</text><rect fill="#EEEEEE" filter="url(#f1uxo5eqd4a4ws)" height="3" style="stroke:#EEEEEE;stroke-width:1.0;" width="1088" x="0" y="827.1914"/><line style="stroke:#000000;stroke-width:1.0;" x1="0" x2="1088" y1="827.1914" y2="827.1914"/><line style="stroke:#000000;stroke-width:1.0;" x1="0" x2="1088" y1="830.1914" y2="830.1914"/><rect fill="#EEEEEE" filter="url(#f1uxo5eqd4a4ws)" height="23.1328" style="stroke:#000000;stroke-width:2.0;" width="117" x="485.5" y="816.625"/><text fill="#000000" font-family="sans-serif" font-size="13" font-weight="bold" lengthAdjust="spacing" textLength="98" x="491.5" y="832.6919">編集を一時退避</text><line style="stroke:#A80036;stroke-width:1.0;" x1="474.5" x2="516.5" y1="870.8906" y2="870.8906"/><line style="stroke:#A80036;stroke-width:1.0;" x1="516.5" x2="516.5" y1="870.8906" y2="883.8906"/><line style="stroke:#A80036;stroke-width:1.0;" x1="475.5" x2="516.5" y1="883.8906" y2="883.8906"/><polygon fill="#A80036" points="485.5,879.8906,475.5,883.8906,485.5,887.8906,481.5,883.8906" style="stroke:#A80036;stroke-width:1.0;"/><text fill="#000000" font-family="sans-serif" font-size="13" lengthAdjust="spacing" textLength="55" x="481.5" y="865.8247">git stash</text><path d="M374,898.8906 L446,898.8906 L446,905.8906 L436,915.8906 L374,915.8906 L374,898.8906 " fill="#EEEEEE" style="stroke:#000000;stroke-width:1.0;"/><rect fill="none" height="173.1406" style="stroke:#000000;stroke-width:2.0;" width="209.5" x="374" y="898.8906"/><text fill="#000000" font-family="sans-serif" font-size="13" font-weight="bold" lengthAdjust="spacing" textLength="27" x="389" y="911.9575">opt</text><text fill="#000000" font-family="sans-serif" font-size="11" font-weight="bold" lengthAdjust="spacing" textLength="54" x="461" y="911.1011">[元に戻す]</text><line style="stroke:#A80036;stroke-width:1.0;" x1="474.5" x2="516.5" y1="937.1563" y2="937.1563"/><line style="stroke:#A80036;stroke-width:1.0;" x1="516.5" x2="516.5" y1="937.1563" y2="950.1563"/><line style="stroke:#A80036;stroke-width:1.0;" x1="475.5" x2="516.5" y1="950.1563" y2="950.1563"/><polygon fill="#A80036" points="485.5,946.1563,475.5,950.1563,485.5,954.1563,481.5,950.1563" style="stroke:#A80036;stroke-width:1.0;"/><text fill="#000000" font-family="sans-serif" font-size="13" lengthAdjust="spacing" textLength="83" x="481.5" y="932.0903">git stash pop</text><line style="stroke:#000000;stroke-width:1.0;stroke-dasharray:2.0,2.0;" x1="374" x2="583.5" y1="959.1563" y2="959.1563"/><text fill="#000000" font-family="sans-serif" font-size="11" font-weight="bold" lengthAdjust="spacing" textLength="87" x="379" y="969.3667">[退避一覧を表示]</text><line style="stroke:#A80036;stroke-width:1.0;" x1="474.5" x2="516.5" y1="994.0938" y2="994.0938"/><line style="stroke:#A80036;stroke-width:1.0;" x1="516.5" x2="516.5" y1="994.0938" y2="1007.0938"/><line style="stroke:#A80036;stroke-width:1.0;" x1="475.5" x2="516.5" y1="1007.0938" y2="1007.0938"/><polygon fill="#A80036" points="485.5,1003.0938,475.5,1007.0938,485.5,1011.0938,481.5,1007.0938" style="stroke:#A80036;stroke-width:1.0;"/><text fill="#000000" font-family="sans-serif" font-size="13" lengthAdjust="spacing" textLength="77" x="481.5" y="989.0278">git stash list</text><line style="stroke:#000000;stroke-width:1.0;stroke-dasharray:2.0,2.0;" x1="374" x2="583.5" y1="1016.0938" y2="1016.0938"/><text fill="#000000" font-family="sans-serif" font-size="11" font-weight="bold" lengthAdjust="spacing" textLength="65" x="379" y="1026.3042">[退避を削除]</text><line style="stroke:#A80036;stroke-width:1.0;" x1="474.5" x2="516.5" y1="1051.0313" y2="1051.0313"/><line style="stroke:#A80036;stroke-width:1.0;" x1="516.5" x2="516.5" y1="1051.0313" y2="1064.0313"/><line style="stroke:#A80036;stroke-width:1.0;" x1="475.5" x2="516.5" y1="1064.0313" y2="1064.0313"/><polygon fill="#A80036" points="485.5,1060.0313,475.5,1064.0313,485.5,1068.0313,481.5,1064.0313" style="stroke:#A80036;stroke-width:1.0;"/><text fill="#000000" font-family="sans-serif" font-size="13" lengthAdjust="spacing" textLength="90" x="481.5" y="1045.9653">git stash clear</text><rect fill="#EEEEEE" filter="url(#f1uxo5eqd4a4ws)" height="3" style="stroke:#EEEEEE;stroke-width:1.0;" width="1088" x="0" y="1099.5977"/><line style="stroke:#000000;stroke-width:1.0;" x1="0" x2="1088" y1="1099.5977" y2="1099.5977"/><line style="stroke:#000000;stroke-width:1.0;" x1="0" x2="1088" y1="1102.5977" y2="1102.5977"/><rect fill="#EEEEEE" filter="url(#f1uxo5eqd4a4ws)" height="23.1328" style="stroke:#000000;stroke-width:2.0;" width="117" x="485.5" y="1089.0313"/><text fill="#000000" font-family="sans-serif" font-size="13" font-weight="bold" lengthAdjust="spacing" textLength="98" x="491.5" y="1105.0981">編集差分の確認</text><line style="stroke:#A80036;stroke-width:1.0;" x1="474.5" x2="516.5" y1="1143.2969" y2="1143.2969"/><line style="stroke:#A80036;stroke-width:1.0;" x1="516.5" x2="516.5" y1="1143.2969" y2="1156.2969"/><line style="stroke:#A80036;stroke-width:1.0;" x1="475.5" x2="516.5" y1="1156.2969" y2="1156.2969"/><polygon fill="#A80036" points="485.5,1152.2969,475.5,1156.2969,485.5,1160.2969,481.5,1156.2969" style="stroke:#A80036;stroke-width:1.0;"/><text fill="#000000" font-family="sans-serif" font-size="13" lengthAdjust="spacing" textLength="41" x="481.5" y="1138.231">git diff</text><rect fill="#EEEEEE" filter="url(#f1uxo5eqd4a4ws)" height="3" style="stroke:#EEEEEE;stroke-width:1.0;" width="1088" x="0" y="1184.8633"/><line style="stroke:#000000;stroke-width:1.0;" x1="0" x2="1088" y1="1184.8633" y2="1184.8633"/><line style="stroke:#000000;stroke-width:1.0;" x1="0" x2="1088" y1="1187.8633" y2="1187.8633"/><rect fill="#EEEEEE" filter="url(#f1uxo5eqd4a4ws)" height="23.1328" style="stroke:#000000;stroke-width:2.0;" width="75" x="506.5" y="1174.2969"/><text fill="#000000" font-family="sans-serif" font-size="13" font-weight="bold" lengthAdjust="spacing" textLength="56" x="512.5" y="1190.3638">コミット</text><line style="stroke:#A80036;stroke-width:1.0;" x1="474.5" x2="516.5" y1="1228.5625" y2="1228.5625"/><line style="stroke:#A80036;stroke-width:1.0;" x1="516.5" x2="516.5" y1="1228.5625" y2="1241.5625"/><line style="stroke:#A80036;stroke-width:1.0;" x1="475.5" x2="516.5" y1="1241.5625" y2="1241.5625"/><polygon fill="#A80036" points="485.5,1237.5625,475.5,1241.5625,485.5,1245.5625,481.5,1241.5625" style="stroke:#A80036;stroke-width:1.0;"/><text fill="#000000" font-family="sans-serif" font-size="13" lengthAdjust="spacing" textLength="194" x="481.5" y="1223.4966">git commit -a -m "[comment]"</text><rect fill="#EEEEEE" filter="url(#f1uxo5eqd4a4ws)" height="3" style="stroke:#EEEEEE;stroke-width:1.0;" width="1088" x="0" y="1270.1289"/><line style="stroke:#000000;stroke-width:1.0;" x1="0" x2="1088" y1="1270.1289" y2="1270.1289"/><line style="stroke:#000000;stroke-width:1.0;" x1="0" x2="1088" y1="1273.1289" y2="1273.1289"/><rect fill="#EEEEEE" filter="url(#f1uxo5eqd4a4ws)" height="23.1328" style="stroke:#000000;stroke-width:2.0;" width="268" x="410" y="1259.5625"/><text fill="#000000" font-family="sans-serif" font-size="13" font-weight="bold" lengthAdjust="spacing" textLength="249" x="416" y="1275.6294">[featureA]ブランチをremoteへ送信</text><polygon fill="#A80036" points="950.5,1309.8281,960.5,1313.8281,950.5,1317.8281,954.5,1313.8281" style="stroke:#A80036;stroke-width:1.0;"/><line style="stroke:#A80036;stroke-width:1.0;" x1="474.5" x2="956.5" y1="1313.8281" y2="1313.8281"/><text fill="#000000" font-family="sans-serif" font-size="13" lengthAdjust="spacing" textLength="160" x="481.5" y="1308.7622">git push origin [featureA]</text><rect fill="#EEEEEE" filter="url(#f1uxo5eqd4a4ws)" height="3" style="stroke:#EEEEEE;stroke-width:1.0;" width="1088" x="0" y="1342.3945"/><line style="stroke:#000000;stroke-width:1.0;" x1="0" x2="1088" y1="1342.3945" y2="1342.3945"/><line style="stroke:#000000;stroke-width:1.0;" x1="0" x2="1088" y1="1345.3945" y2="1345.3945"/><rect fill="#EEEEEE" filter="url(#f1uxo5eqd4a4ws)" height="23.1328" style="stroke:#000000;stroke-width:2.0;" width="292" x="398" y="1331.8281"/><text fill="#000000" font-family="sans-serif" font-size="13" font-weight="bold" lengthAdjust="spacing" textLength="273" x="404" y="1347.895">[featureA]ブランチを[master]へマージ</text><path d="M129,1371.9609 L201,1371.9609 L201,1378.9609 L191,1388.9609 L129,1388.9609 L129,1371.9609 " fill="#EEEEEE" style="stroke:#000000;stroke-width:1.0;"/><rect fill="none" height="46.2656" style="stroke:#000000;stroke-width:2.0;" width="446" x="129" y="1371.9609"/><text fill="#000000" font-family="sans-serif" font-size="13" font-weight="bold" lengthAdjust="spacing" textLength="27" x="144" y="1385.0278">opt</text><text fill="#000000" font-family="sans-serif" font-size="11" font-weight="bold" lengthAdjust="spacing" textLength="189" x="216" y="1384.1714">[[master]ブランチでなければ移動]</text><polygon fill="#A80036" points="263.5,1406.2266,253.5,1410.2266,263.5,1414.2266,259.5,1410.2266" style="stroke:#A80036;stroke-width:1.0;"/><line style="stroke:#A80036;stroke-width:1.0;" x1="257.5" x2="473.5" y1="1410.2266" y2="1410.2266"/><text fill="#000000" font-family="sans-serif" font-size="13" lengthAdjust="spacing" textLength="138" x="269.5" y="1405.1606">git checkout [master]</text><line style="stroke:#A80036;stroke-width:1.0;" x1="252.5" x2="294.5" y1="1446.3594" y2="1446.3594"/><line style="stroke:#A80036;stroke-width:1.0;" x1="294.5" x2="294.5" y1="1446.3594" y2="1459.3594"/><line style="stroke:#A80036;stroke-width:1.0;" x1="253.5" x2="294.5" y1="1459.3594" y2="1459.3594"/><polygon fill="#A80036" points="263.5,1455.3594,253.5,1459.3594,263.5,1463.3594,259.5,1459.3594" style="stroke:#A80036;stroke-width:1.0;"/><text fill="#000000" font-family="sans-serif" font-size="13" lengthAdjust="spacing" textLength="132" x="259.5" y="1441.2935">git merge [featureA]</text><polygon fill="#A80036" points="736.5,1484.4922,746.5,1488.4922,736.5,1492.4922,740.5,1488.4922" style="stroke:#A80036;stroke-width:1.0;"/><line style="stroke:#A80036;stroke-width:1.0;" x1="252.5" x2="742.5" y1="1488.4922" y2="1488.4922"/><text fill="#000000" font-family="sans-serif" font-size="13" lengthAdjust="spacing" textLength="150" x="259.5" y="1483.4263">git push origin [master]</text><path d="M129,1503.4922 L201,1503.4922 L201,1510.4922 L191,1520.4922 L129,1520.4922 L129,1503.4922 " fill="#EEEEEE" style="stroke:#000000;stroke-width:1.0;"/><rect fill="none" height="59.2656" style="stroke:#000000;stroke-width:2.0;" width="252.5" x="129" y="1503.4922"/><text fill="#000000" font-family="sans-serif" font-size="13" font-weight="bold" lengthAdjust="spacing" textLength="27" x="144" y="1516.5591">opt</text><text fill="#000000" font-family="sans-serif" font-size="11" font-weight="bold" lengthAdjust="spacing" textLength="98" x="216" y="1515.7026">[マージを取り消す]</text><line style="stroke:#A80036;stroke-width:1.0;" x1="252.5" x2="294.5" y1="1541.7578" y2="1541.7578"/><line style="stroke:#A80036;stroke-width:1.0;" x1="294.5" x2="294.5" y1="1541.7578" y2="1554.7578"/><line style="stroke:#A80036;stroke-width:1.0;" x1="253.5" x2="294.5" y1="1554.7578" y2="1554.7578"/><polygon fill="#A80036" points="263.5,1550.7578,253.5,1554.7578,263.5,1558.7578,259.5,1554.7578" style="stroke:#A80036;stroke-width:1.0;"/><text fill="#000000" font-family="sans-serif" font-size="13" lengthAdjust="spacing" textLength="110" x="259.5" y="1536.6919">git merge --abort</text><rect fill="#EEEEEE" filter="url(#f1uxo5eqd4a4ws)" height="3" style="stroke:#EEEEEE;stroke-width:1.0;" width="1088" x="0" y="1590.3242"/><line style="stroke:#000000;stroke-width:1.0;" x1="0" x2="1088" y1="1590.3242" y2="1590.3242"/><line style="stroke:#000000;stroke-width:1.0;" x1="0" x2="1088" y1="1593.3242" y2="1593.3242"/><rect fill="#EEEEEE" filter="url(#f1uxo5eqd4a4ws)" height="23.1328" style="stroke:#000000;stroke-width:2.0;" width="161" x="463.5" y="1579.7578"/><text fill="#000000" font-family="sans-serif" font-size="13" font-weight="bold" lengthAdjust="spacing" textLength="142" x="469.5" y="1595.8247">remotoの履歴を取得</text><polygon fill="#A80036" points="263.5,1630.0234,253.5,1634.0234,263.5,1638.0234,259.5,1634.0234" style="stroke:#A80036;stroke-width:1.0;"/><line style="stroke:#A80036;stroke-width:1.0;" x1="257.5" x2="747.5" y1="1634.0234" y2="1634.0234"/><text fill="#000000" font-family="sans-serif" font-size="13" lengthAdjust="spacing" textLength="152" x="269.5" y="1628.9575">git fetch origin [master]</text><line style="stroke:#A80036;stroke-width:1.0;" x1="252.5" x2="294.5" y1="1663.1563" y2="1663.1563"/><line style="stroke:#A80036;stroke-width:1.0;" x1="294.5" x2="294.5" y1="1663.1563" y2="1676.1563"/><line style="stroke:#A80036;stroke-width:1.0;" x1="253.5" x2="294.5" y1="1676.1563" y2="1676.1563"/><polygon fill="#A80036" points="263.5,1672.1563,253.5,1676.1563,263.5,1680.1563,259.5,1676.1563" style="stroke:#A80036;stroke-width:1.0;"/><text fill="#000000" font-family="sans-serif" font-size="13" lengthAdjust="spacing" textLength="161" x="259.5" y="1658.0903">git merge origin/[master]</text><path d="M129,1691.1563 L201,1691.1563 L201,1698.1563 L191,1708.1563 L129,1708.1563 L129,1691.1563 " fill="#EEEEEE" style="stroke:#000000;stroke-width:1.0;"/><rect fill="none" height="46.2656" style="stroke:#000000;stroke-width:2.0;" width="743" x="129" y="1691.1563"/><text fill="#000000" font-family="sans-serif" font-size="13" font-weight="bold" lengthAdjust="spacing" textLength="27" x="144" y="1704.2231">opt</text><text fill="#000000" font-family="sans-serif" font-size="11" font-weight="bold" lengthAdjust="spacing" textLength="166" x="216" y="1703.3667">[fetchとmergeを同時に行う]</text><polygon fill="#A80036" points="263.5,1725.4219,253.5,1729.4219,263.5,1733.4219,259.5,1729.4219" style="stroke:#A80036;stroke-width:1.0;"/><line style="stroke:#A80036;stroke-width:1.0;" x1="257.5" x2="747.5" y1="1729.4219" y2="1729.4219"/><text fill="#000000" font-family="sans-serif" font-size="13" lengthAdjust="spacing" textLength="141" x="269.5" y="1724.356">git pull origin [master]</text><rect fill="#EEEEEE" filter="url(#f1uxo5eqd4a4ws)" height="3" style="stroke:#EEEEEE;stroke-width:1.0;" width="1088" x="0" y="1764.9883"/><line style="stroke:#000000;stroke-width:1.0;" x1="0" x2="1088" y1="1764.9883" y2="1764.9883"/><line style="stroke:#000000;stroke-width:1.0;" x1="0" x2="1088" y1="1767.9883" y2="1767.9883"/><rect fill="#EEEEEE" filter="url(#f1uxo5eqd4a4ws)" height="23.1328" style="stroke:#000000;stroke-width:2.0;" width="89" x="499.5" y="1754.4219"/><text fill="#000000" font-family="sans-serif" font-size="13" font-weight="bold" lengthAdjust="spacing" textLength="70" x="505.5" y="1770.4888">タグの作成</text><line style="stroke:#A80036;stroke-width:1.0;" x1="252.5" x2="294.5" y1="1808.6875" y2="1808.6875"/><line style="stroke:#A80036;stroke-width:1.0;" x1="294.5" x2="294.5" y1="1808.6875" y2="1821.6875"/><line style="stroke:#A80036;stroke-width:1.0;" x1="253.5" x2="294.5" y1="1821.6875" y2="1821.6875"/><polygon fill="#A80036" points="263.5,1817.6875,253.5,1821.6875,263.5,1825.6875,259.5,1821.6875" style="stroke:#A80036;stroke-width:1.0;"/><text fill="#000000" font-family="sans-serif" font-size="13" lengthAdjust="spacing" textLength="208" x="259.5" y="1803.6216">git tag -a [v1.0] -m "[comment]"</text><polygon fill="#A80036" points="736.5,1846.8203,746.5,1850.8203,736.5,1854.8203,740.5,1850.8203" style="stroke:#A80036;stroke-width:1.0;"/><line style="stroke:#A80036;stroke-width:1.0;" x1="252.5" x2="742.5" y1="1850.8203" y2="1850.8203"/><text fill="#000000" font-family="sans-serif" font-size="13" lengthAdjust="spacing" textLength="132" x="259.5" y="1845.7544">git push origin [v1.0]</text><path d="M129,1865.8203 L201,1865.8203 L201,1872.8203 L191,1882.8203 L129,1882.8203 L129,1865.8203 " fill="#EEEEEE" style="stroke:#000000;stroke-width:1.0;"/><rect fill="none" height="59.2656" style="stroke:#000000;stroke-width:2.0;" width="247" x="129" y="1865.8203"/><text fill="#000000" font-family="sans-serif" font-size="13" font-weight="bold" lengthAdjust="spacing" textLength="27" x="144" y="1878.8872">opt</text><text fill="#000000" font-family="sans-serif" font-size="11" font-weight="bold" lengthAdjust="spacing" textLength="54" x="216" y="1878.0308">[一覧表示]</text><line style="stroke:#A80036;stroke-width:1.0;" x1="252.5" x2="294.5" y1="1904.0859" y2="1904.0859"/><line style="stroke:#A80036;stroke-width:1.0;" x1="294.5" x2="294.5" y1="1904.0859" y2="1917.0859"/><line style="stroke:#A80036;stroke-width:1.0;" x1="253.5" x2="294.5" y1="1917.0859" y2="1917.0859"/><polygon fill="#A80036" points="263.5,1913.0859,253.5,1917.0859,263.5,1921.0859,259.5,1917.0859" style="stroke:#A80036;stroke-width:1.0;"/><text fill="#000000" font-family="sans-serif" font-size="13" lengthAdjust="spacing" textLength="41" x="259.5" y="1899.02">git tag</text><rect fill="#EEEEEE" filter="url(#f1uxo5eqd4a4ws)" height="3" style="stroke:#EEEEEE;stroke-width:1.0;" width="1088" x="0" y="1952.6523"/><line style="stroke:#000000;stroke-width:1.0;" x1="0" x2="1088" y1="1952.6523" y2="1952.6523"/><line style="stroke:#000000;stroke-width:1.0;" x1="0" x2="1088" y1="1955.6523" y2="1955.6523"/><rect fill="#EEEEEE" filter="url(#f1uxo5eqd4a4ws)" height="23.1328" style="stroke:#000000;stroke-width:2.0;" width="212" x="438" y="1942.0859"/><text fill="#000000" font-family="sans-serif" font-size="13" font-weight="bold" lengthAdjust="spacing" textLength="193" x="444" y="1958.1528">[master]のファイル名の変更</text><path d="M129,1982.2188 L201,1982.2188 L201,1989.2188 L191,1999.2188 L129,1999.2188 L129,1982.2188 " fill="#EEEEEE" style="stroke:#000000;stroke-width:1.0;"/><rect fill="none" height="46.2656" style="stroke:#000000;stroke-width:2.0;" width="446" x="129" y="1982.2188"/><text fill="#000000" font-family="sans-serif" font-size="13" font-weight="bold" lengthAdjust="spacing" textLength="27" x="144" y="1995.2856">opt</text><text fill="#000000" font-family="sans-serif" font-size="11" font-weight="bold" lengthAdjust="spacing" textLength="189" x="216" y="1994.4292">[[master]ブランチでなければ移動]</text><polygon fill="#A80036" points="263.5,2016.4844,253.5,2020.4844,263.5,2024.4844,259.5,2020.4844" style="stroke:#A80036;stroke-width:1.0;"/><line style="stroke:#A80036;stroke-width:1.0;" x1="257.5" x2="473.5" y1="2020.4844" y2="2020.4844"/><text fill="#000000" font-family="sans-serif" font-size="13" lengthAdjust="spacing" textLength="138" x="269.5" y="2015.4185">git checkout [master]</text><line style="stroke:#A80036;stroke-width:1.0;" x1="252.5" x2="294.5" y1="2056.6172" y2="2056.6172"/><line style="stroke:#A80036;stroke-width:1.0;" x1="294.5" x2="294.5" y1="2056.6172" y2="2069.6172"/><line style="stroke:#A80036;stroke-width:1.0;" x1="253.5" x2="294.5" y1="2069.6172" y2="2069.6172"/><polygon fill="#A80036" points="263.5,2065.6172,253.5,2069.6172,263.5,2073.6172,259.5,2069.6172" style="stroke:#A80036;stroke-width:1.0;"/><text fill="#000000" font-family="sans-serif" font-size="13" lengthAdjust="spacing" textLength="189" x="259.5" y="2051.5513">git mv [oldname] [newname]</text><line style="stroke:#A80036;stroke-width:1.0;" x1="252.5" x2="294.5" y1="2098.75" y2="2098.75"/><line style="stroke:#A80036;stroke-width:1.0;" x1="294.5" x2="294.5" y1="2098.75" y2="2111.75"/><line style="stroke:#A80036;stroke-width:1.0;" x1="253.5" x2="294.5" y1="2111.75" y2="2111.75"/><polygon fill="#A80036" points="263.5,2107.75,253.5,2111.75,263.5,2115.75,259.5,2111.75" style="stroke:#A80036;stroke-width:1.0;"/><text fill="#000000" font-family="sans-serif" font-size="13" lengthAdjust="spacing" textLength="194" x="259.5" y="2093.6841">git commit -a -m "[comment]"</text><polygon fill="#A80036" points="736.5,2136.8828,746.5,2140.8828,736.5,2144.8828,740.5,2140.8828" style="stroke:#A80036;stroke-width:1.0;"/><line style="stroke:#A80036;stroke-width:1.0;" x1="252.5" x2="742.5" y1="2140.8828" y2="2140.8828"/><text fill="#000000" font-family="sans-serif" font-size="13" lengthAdjust="spacing" textLength="150" x="259.5" y="2135.8169">git push origin [master]</text><rect fill="#EEEEEE" filter="url(#f1uxo5eqd4a4ws)" height="3" style="stroke:#EEEEEE;stroke-width:1.0;" width="1088" x="0" y="2169.4492"/><line style="stroke:#000000;stroke-width:1.0;" x1="0" x2="1088" y1="2169.4492" y2="2169.4492"/><line style="stroke:#000000;stroke-width:1.0;" x1="0" x2="1088" y1="2172.4492" y2="2172.4492"/><rect fill="#EEEEEE" filter="url(#f1uxo5eqd4a4ws)" height="23.1328" style="stroke:#000000;stroke-width:2.0;" width="197" x="445.5" y="2158.8828"/><text fill="#000000" font-family="sans-serif" font-size="13" font-weight="bold" lengthAdjust="spacing" textLength="178" x="451.5" y="2174.9497">[featureA]ブランチを削除</text><polygon fill="#A80036" points="462.5,2209.1484,472.5,2213.1484,462.5,2217.1484,466.5,2213.1484" style="stroke:#A80036;stroke-width:1.0;"/><line style="stroke:#A80036;stroke-width:1.0;" x1="252.5" x2="468.5" y1="2213.1484" y2="2213.1484"/><text fill="#000000" font-family="sans-serif" font-size="13" lengthAdjust="spacing" textLength="151" x="259.5" y="2208.0825">git branch -d [featureA]</text><polygon fill="#A80036" points="950.5,2238.2813,960.5,2242.2813,950.5,2246.2813,954.5,2242.2813" style="stroke:#A80036;stroke-width:1.0;"/><line style="stroke:#A80036;stroke-width:1.0;" x1="252.5" x2="956.5" y1="2242.2813" y2="2242.2813"/><text fill="#000000" font-family="sans-serif" font-size="13" lengthAdjust="spacing" textLength="214" x="259.5" y="2237.2153">git push --delete origin [featureA]</text><!--MD5=[555c5504c03ddc20e0e2b3a3a4e9a459]
@startuml
skinparam participantPadding 50
skinparam BoxPadding 30

actor developer as developer
box "local" #LightCyan
participant  "master or main" as lmaster
participant  featureA as lfeatureA
end box

box "remote" #LightBlue
participant  "master or main"  as rmaster
participant  featureA as rfeatureA
end box

== リポジトリ作成 ==
alt リポジトリが存在している
developer <- rmaster : git clone [URL]
else 存在していない
developer -> lmaster : git init
lmaster -> lmaster : git add .
lmaster -> lmaster : git commit -m "first commit"
lmaster -> lmaster : git branch -M [master]
lmaster -> lmaster : git remote add origin [URL]
lmaster -> rmaster : git push origin [master]
end

== [featureA]ブランチを[master]から作成 ==
lmaster -> lfeatureA : git branch [featureA] [master]

== [featureA]ブランチへ移動 ==
lmaster -> lfeatureA : git checkout [featureA]
opt gitバージョンが[2.23.0]以上の場合switchが利用可能 
lmaster -> lfeatureA : git switch -c [featureA]
end

== ステージング ==
lfeatureA -> lfeatureA : git add [file]
opt ステージから外す
lfeatureA -> lfeatureA : git reset [file]
end

== 編集を一時退避 ==
lfeatureA -> lfeatureA : git stash
opt 元に戻す
lfeatureA -> lfeatureA : git stash pop
else 退避一覧を表示
lfeatureA -> lfeatureA : git stash list
else 退避を削除
lfeatureA -> lfeatureA : git stash clear
end

== 編集差分の確認 ==
lfeatureA -> lfeatureA : git diff

== コミット ==
lfeatureA -> lfeatureA : git commit -a -m "[comment]"

== [featureA]ブランチをremoteへ送信 ==
lfeatureA -> rfeatureA : git push origin [featureA]

== [featureA]ブランチを[master]へマージ ==
opt [master]ブランチでなければ移動
lmaster <- lfeatureA : git checkout [master]
end
lmaster -> lmaster : git merge [featureA]
lmaster -> rmaster : git push origin [master]
opt マージを取り消す
lmaster -> lmaster : git merge - -abort
end 

== remotoの履歴を取得 ==
lmaster <- rmaster : git fetch origin [master]
lmaster -> lmaster : git merge origin/[master]
opt fetchとmergeを同時に行う
lmaster <- rmaster : git pull origin [master]
end

== タグの作成 ==
lmaster -> lmaster : git tag -a [v1.0] -m "[comment]"
lmaster -> rmaster : git push origin [v1.0]
opt 一覧表示
lmaster -> lmaster : git tag
end

== [master]のファイル名の変更 ==
opt [master]ブランチでなければ移動
lmaster <- lfeatureA : git checkout [master]
end
lmaster -> lmaster : git mv [oldname] [newname]
lmaster -> lmaster :git commit -a -m "[comment]"
lmaster -> rmaster :git push origin [master]

== [featureA]ブランチを削除 ==
lmaster -> lfeatureA : git branch -d [featureA]
lmaster -> rfeatureA : git push - -delete origin [featureA]
@enduml

PlantUML version 1.2021.01beta3(Unknown compile time)
(GPL source distribution)
Java Runtime: Java(TM) SE Runtime Environment
JVM: Java HotSpot(TM) 64-Bit Server VM
Default Encoding: UTF-8
Language: en
Country: US
--></g></svg>